<?xml version="1.0" encoding="utf-8"?>
<!-- Generator: Adobe Illustrator 16.0.0, SVG Export Plug-In . SVG Version: 6.00 Build 0)  -->
<!DOCTYPE svg PUBLIC "-//W3C//DTD SVG 1.1//EN" "http://www.w3.org/Graphics/SVG/1.1/DTD/svg11.dtd">
<svg version="1.1" xmlns="http://www.w3.org/2000/svg" xmlns:xlink="http://www.w3.org/1999/xlink" x="0px" y="0px" width="500px"
	 height="400px" viewBox="0 0 500 400" enable-background="new 0 0 500 400" xml:space="preserve">
<g id="notebook">
	<path fill-rule="evenodd" clip-rule="evenodd" fill="#E0DFE5" d="M186.935,207.615c-1.015-6.135-2.263-12.243-2.958-18.414
		c-0.436-3.877-4.725-5.748-4.227-10.242c0.385-3.486,0.992-6.637,3.405-9.014c7.014-6.91,11.097-15.107,11.909-24.946
		c0.107-1.314,0.744-2.548,1.85-3.426c1.091-0.031,1.992,0.414,2.408,1.394c1.025,2.42,2.416,1.604,3.877,0.54
		c0.367-0.273,0.767-0.486,1.189-0.659c2.231-0.337,4.282-1.305,6.449-1.885c1.203-0.021,2.271,0.436,3.332,0.929
		c2.283,1.162,4.581,2.308,6.432,4.147c3.814,3.711,9.09,5.973,11.27,11.317c0.802,1.285,1.217,2.685,1.254,4.197
		c0.029,0.988-0.102,1.959-0.334,2.916c-0.533,1.796-0.946,3.626-1.385,5.445c-0.309,1.784,0.068,3.094,1.965,3.899
		c1.944,0.826,3.684,2.07,5.031,3.774c0.777,1.893-0.244,2.99-1.557,4.227c-3.754,3.538-3.859,5.798-0.752,9.732
		c0.204,0.259,0.436,0.497,0.639,0.759c3.532,4.578,3.369,5.161-2.118,7.604c-2.784-1.257-5.386-2.947-8.562-3.239
		c-1.1-0.102-2.279-0.499-2.292-2.018c0.476-0.558,1.1-0.646,2.126-0.488c-2.692-0.81-5.18-0.967-7.527-1.676
		c-1.686-0.509-2.719-1.701-1.062-3.246c5.498-5.128,8-11.394,7.541-18.867c0.814-2.227,1.522-4.459,0.318-6.787
		c-0.428-1.755,1.27-3.245,0.698-5.021c-1.276-0.51-2.125,0.613-3.204,0.688c-3.607,0.276-6.115-1.873-9.08-4.868
		c-0.376,4.59,4.662,5.575,4.156,9.104c-0.285,1.819-1.533,2.92-2.912,3.925c-1.637,1.243-3.604,1.933-5.264,3.14
		c-1.918,2.032-2.508,4.8-3.929,7.107c-0.864,1.807-1.187,3.736-1.528,5.69c-0.547,3.123-2.261,5.059-5.734,4.761
		c-1.477-0.559-1.475-2.468-3.008-3.514c-1.475,3.743-1.559,7.589-3.104,10.989C190.223,199.488,188.344,203.447,186.935,207.615z"
		/>
	<path fill-rule="evenodd" clip-rule="evenodd" fill="#BDBBC2" d="M231.019,119.58c-1.31-2.039-0.92-3.473,1.543-4.008
		c5.479-1.191,10.975-2.305,16.452-3.501c1.125-0.246,2.188-0.005,2.637,0.891c2.524,5.054,5.106,2.051,7.463,0.013
		c2.864-2.478,5.65-4.432,9.576-5.564c6.592-1.904,10.101,2.574,14.604,5.149c6.136,3.508,11.451,8.528,18.668,10.024
		c1.299,0.697,2.719-0.386,4.023,0.264c1.35,0.387,2.727,0.647,4.104,0.924c2.253,0.742,3.258-0.846,4.441-2.27
		c4.119-4.95,7.807-5.211,12.487-0.763c2.546,2.417,4.351,5.389,5.483,8.739c0.062,0.499,0.017,0.988-0.139,1.467
		c-3.501,1.771-5.33-1.478-7.566-2.831c-5.533-3.35-5.525-3.593-7.709,2.297c-1.164,3.139-2.942,4.562-6.33,3.777
		c-2.258-0.523-4.584-0.273-6.883-0.252c-3.236-0.16-6.272,0.868-9.355,1.594c-4.373,0.537-8.723,1.139-11.974,4.616
		c-5.536,0.217-7.312-4.068-9.476-7.896c-0.949-5.283-0.281-10.621-0.486-15.934c-0.057-1.492,0.188-3.1-0.662-4.386
		c-0.971-1.474-2.932-2.229-3.256-0.028c-0.854,5.803-4.604,11.258-2.307,17.458c0.23,1.198,0.154,2.396-0.018,3.593
		c-1.033,1.722-2.32,1.734-3.592,0.358c-1.158-1.252-2.566-2.055-4.506-2.995c1.021,1.384,1.841,2.486,1.234,3.893
		c-0.217,0.386-0.538,0.644-0.969,0.753c-1.008-0.157-2.021-0.282-3.048-0.063c-1.163-0.338-1.712-1.307-2.316-2.224
		c-1.958-2.699-1.874-5.025,1.062-7.06c1.098-0.761,2.951-1.513,2.008-3.352c-0.752-1.469-2.469-1.313-3.939-1.348
		c-1.264-0.03-2.6,0.548-3.76-0.428c-1.359-4.075-4.045-5.104-8-3.666c-2.707,0.985-5.955,0.386-8.191,2.786
		C231.883,119.841,231.447,119.84,231.019,119.58z"/>
	<path fill-rule="evenodd" clip-rule="evenodd" fill="#D8D2DC" d="M206.915,245.633c-8.091-10.723-16.417-21.318-18.911-35.061
		c0.408-0.525,0.596-1.289,1.442-1.34c0.47,0.082,0.862,0.307,1.18,0.662c3.022,5.73,7.688,9.158,14.142,10.064
		c0.447-0.031,0.894-0.012,1.337,0.037c2.546,0.666,4.668-0.77,6.948-1.428c2.121-0.438,4.121-1.262,6.092-2.098
		c3.204-1.359,3.33-2.793,0.441-4.781c-1.765-1.215-3.895-1.881-5.489-3.354c-1.202-1.111-2.608-2.312-0.915-4.127
		c5.705,0.754,11.152,2.73,16.881,3.453c2.714,0.34,4.891,0.104,6.623-2.115c2.406-0.561,3.016,1.225,3.738,2.859
		c0.379,1.354-0.314,2.5-0.728,3.709c-1.007,2.947-0.452,5.389,2.368,7.066c1.084,1.525,2.296,2.967,3.135,4.658
		c-1.816,3.146-3.711,0.744-5.586,0.092c-1.944-1.051-4.113-1.676-6.052-3.572c0.676,3.504,3.866,6.111,1.431,9.518
		c-1.775,0.717-2.72-0.445-3.668-1.611c-1.156-1.529-1.614-3.422-2.609-5.033c-0.5-0.693-1.191-1.541-1.972-1.326
		c-4.751,1.314-9.187,3.553-14.038,4.668c-1.58,0.363-0.91,2.281-0.25,3.449c1.789,3.162,2.796,6.773,5.484,9.426
		c1.48,1.459,2.199,3.295,2.256,5.385c0.064,1.447,0.057,2.895,0.012,4.342c-1.252,5.354-3,5.896-7.221,2.664
		C210.633,250.035,209.852,246.791,206.915,245.633z"/>
	<path fill-rule="evenodd" clip-rule="evenodd" fill="#EEEAF3" d="M233.023,273.551c-1.096-3.129-4.071-4.609-6.086-6.932
		c0.979-1.305,2.624-1.727,3.742-2.85c1.346-1.014,2.812-1.783,4.434-2.252c3.982-1.146,7.834-2.246,12.178-1.1
		c3.736,0.984,8.034-2.012,9.529-6.34c0.823-2.379,2.113-3.596,4.381-4.152c3.197-0.785,5.271-3.412,8.015-4.932
		c2.062-1.143,4.329-2.51,5.511,1.104c-1.027,5.43-4.603,8.93-9.011,11.965c3.386-2.072,6.456-4.453,9.854-6.318
		c0.855-0.533,1.754-0.959,2.74-1.191c2.777,0.273,6.277-2.664,8.117,1.807c-1.072,3.346-4.383,3.742-6.894,5.141
		c-4.931,2.744-10.431,4.354-15.134,7.564c-1.369,0.936-2.867,1.715-3.693,3.266c-0.805,3.186-2.76,4.221-6.092,4.371
		C247.42,273.023,240.195,272.695,233.023,273.551z"/>
	<path fill-rule="evenodd" clip-rule="evenodd" fill="#B2B0B8" d="M259.932,266.588c7.797-6.314,17.693-8.689,26.082-13.896
		c4.084-3.379,9.365-2.9,14.047-4.371c2.889,0.393,6.402-1.449,8.361,2.309c0.059,1.018-0.736,1.467-1.359,2.033
		c-10.299,5.205-18.721,13.977-30.984,15.561c-4.133,0.533-8.024,2.938-12.026,4.488C259.32,272.93,259.359,269.938,259.932,266.588
		z"/>
	<path fill-rule="evenodd" clip-rule="evenodd" fill="#E0DFE6" d="M231.019,119.58c0.313-0.005,0.628-0.002,0.94,0.007
		c0.744,0.135,1.292,0.558,1.723,1.157c0.779,1.215,1.234,2.538,1.312,3.984c-0.822,2.703-0.822,2.703-3.369,4.058
		c1.164,0.499,2.373,0.565,3.469,0.998c7.188,1.575,7.568,2.504,5.006,12.155c-0.682,2.375-1.314,4.779-3.616,6.207
		c-2.104,0.69-3.82-0.403-5.565-1.271c-2.447-1.219-4.438-2.613-1.68-5.47c0.707-0.732,1.364-1.66,0.134-2.404
		c-1.114-0.674-2.214-0.43-2.921,0.803c-0.695,1.214-0.645,3.002-2.543,3.285c-0.232-0.046-0.463-0.093-0.694-0.139
		c-0.407-0.3-0.579-0.694-0.483-1.197c-0.939-6.401,4.047-10.572,5.937-15.904C229.414,123.742,228.762,121.131,231.019,119.58z"/>
	<path fill-rule="evenodd" clip-rule="evenodd" fill="#C9C5D0" d="M231.01,264.623c-0.801,1.801-2.368,2.037-4.072,1.996
		c-4.414-0.229-6.654-4.033-9.973-6.066c-3.839-2.797-5.529-7.164-7.998-10.961c-0.684-1.32-1.367-2.639-2.052-3.959
		c1.566-1.715,2.144-0.137,2.985,0.846c1.508,1.756,2.939,3.619,4.67,5.131c2.84,2.484,4.423,1.658,4.457-2.113
		c2.633,0.492,2.883,2.99,3.809,4.779c1.858,3.592,3.785,7.047,7.387,9.207C230.568,263.807,230.832,264.186,231.01,264.623z"/>
	<path fill-rule="evenodd" clip-rule="evenodd" fill="#D4CCD6" d="M188.947,209.594c-0.314,0.326-0.63,0.652-0.943,0.979
		c-0.356-0.986-0.713-1.973-1.069-2.957c-0.089-3.643-0.392-7.311,3.172-9.826c1.022-0.723,0.798-2.098,0.877-3.243
		c0.664-0.201,1.458-0.23,1.827,0.306c3.016,4.375,7.089,8.087,8.521,13.462c-0.984,1.234-1.779,2.26-0.447,4.012
		c1.092,1.438,2.061,2.982,3.304,4.324c0.128,1.125-0.429,1.84-1.384,2.316c-3.572,0.154-5.926-1.305-6.96-4.889
		c-0.702-2.432-2.722-4.1-4.101-6.141c-0.346-0.787-0.291-1.617-0.219-2.906C190.77,206.939,190.365,208.58,188.947,209.594z"/>
	<path fill-rule="evenodd" clip-rule="evenodd" fill="#A09BA2" d="M222.73,141.753c0.067,0.319,0.094,0.641,0.078,0.967
		c-1.112,1.947-2.756,1.085-4.256,0.762c-1.544-0.333-2.977-1.266-4.657-0.812c-0.976-0.366-1.951-0.731-2.927-1.098
		c-0.275-0.225-0.647-0.181-0.895-0.305c-2.92-1.479-4.799-0.319-6.115,2.344l0.003,0.018c-3.675,1.229-4.983-0.6-4.542-3.888
		c0.23-1.711,0.322-3.625,1.579-5.087c0.929-0.273,2.188-1.08,2.738-0.74C209.648,137.58,217.41,136.738,222.73,141.753z"/>
	<path fill-rule="evenodd" clip-rule="evenodd" fill="#CBC8CF" d="M259.932,266.588c0.047,2.934,1.258,5.082,4.119,6.121
		c-7.49,1.686-15.275,0.756-22.76,2.611c-2.959,0.734-5.885,0.553-8.269-1.77c0.331-2.561,2.339-1.891,3.868-1.914
		c4.99-0.078,9.99-0.24,14.97-0.014C255.875,271.805,259.287,271.562,259.932,266.588z"/>
	<path fill-rule="evenodd" clip-rule="evenodd" fill="#CFCDD4" d="M200.999,134.654c-0.19,1.385,1.263,2.668,0.176,4.132
		c-2.749,3.703,0.128,4.222,2.787,4.843c-0.446,2.649-2.864,2.661-4.536,2.697c-2.324,0.052-0.25-2.063-0.887-2.977
		c-0.454-0.652-1.076-1.188-1.625-1.775C198.145,139.19,197.189,135.516,200.999,134.654z"/>
	<path fill-rule="evenodd" clip-rule="evenodd" fill="#D8D2DC" d="M208.967,249.592c4.223,2.518,5.563,7.139,7.998,10.961
		C211.398,259.016,208.648,255.422,208.967,249.592z"/>
	<path fill-rule="evenodd" clip-rule="evenodd" fill="#D4D3DA" d="M239.715,208.625c-0.987-0.957-1.231-2.609-2.814-3.014
		c-3.037-1.207-2.928-3.459-1.99-5.988c4.791-3.271,1.701-5.746-0.785-8.371c-2.601-2.746-2.07-8.13,1.184-10.135
		c1.473-0.908,2.98-1.379,2.621-3.492c0.654-2.141,1.389-4.254,2.054-6.396c0.903-2.36,2.471-4.077,4.843-5.021
		c1.504-0.217,2.859,0.143,4.068,1.061c-1.757,2.28,0.953,3.585,1.195,5.427c-1.754,1.029-1.127,2.63-0.961,4.115
		c-0.207,3.101-0.43,6.194-0.479,9.312c-0.046,2.839-1.253,5.452-3.44,7.447c-2.188,1.997-2.006,3.473,0.267,5.602
		c4.433,4.155,4.369,5.973,0.706,8.979c-1.037,0.068-1.848-0.396-2.562-1.084c-1.376-1.658-1.889-3.834-3.266-5.5
		c-0.219-0.266-0.454-0.475-0.861-0.609c-0.318,1.525,0.754,2.695,0.984,4.048c0.275,0.883,0.396,1.773,0.146,2.684
		C240.449,208.127,240.145,208.439,239.715,208.625z"/>
	<path fill-rule="evenodd" clip-rule="evenodd" fill="#AEAAB7" d="M202.963,218.594c0.334-0.662,0.667-1.322,1-1.984
		c0.199-2.648-2.971-3.945-2.672-6.639c1.168-2.102-1.002-3.699-0.875-5.645c0.918-5.143-1.4-9.08-4.712-12.653
		c-0.184-1.943,0.728-3.271,2.353-4.197c3.205-0.392,5.063-1.861,4.98-5.43c-0.045-1.931,0.526-3.88,1.928-5.414
		c2.469,2.495-1.084,5.955,1.365,8.451c0.504,0.805,0.913,1.647,1.027,2.604c-0.02,0.162,0.015,0.375-0.076,0.48
		c-4.433,5.203-4.432,5.201,0.301,11.324c0.502,0.65,0.973,1.326,1.506,1.945c0.449,0.447,0.926,0.869,1.453,1.225
		c0.857,0.572,1.87,0.969,2.338,1.996c0.772,3.254,3.74,3.824,6.147,5.16c1.979,1.1,4.671,2.07,4.507,4.777
		c-0.162,2.664-2.823,2.711-4.908,3.287c-1.892,0.523-3.531,1.887-5.643,1.77c-1.611-1.352-3.4-2.564-4.005-4.895
		c0.712,2.881-3.202,3.248-3.05,5.869c-0.35,0.021-0.699,0.041-1.049,0.064C203.199,220.941,203.066,219.781,202.963,218.594z"/>
	<path fill-rule="evenodd" clip-rule="evenodd" fill="#D6D5DD" d="M210.033,203.451c-0.367-0.281-0.732-0.561-1.1-0.84
		c-1.473-2.697,0.957-3.884,2.205-5.431c3.631-4.495,3.605-4.903-1.429-7.534c-1.044-0.546-2.058-1.082-2.788-2.033
		c-0.869-0.437-0.97-1.289-1.141-2.104c-1.863-3.627,0.623-6.306,2.003-9.226c2.701-2.916,5.642-4.412,9.456-1.818
		c2.18,1.48,3.564,0.075,4.973-1.507c1.104-1.24,1.305-3.549,3.705-3.375c-0.038,5.383,1.111,10.945-3.873,15.234
		c-1.766,1.519,1.09,6.915-5.439,5.292c3.982,1.778,7.529,1.766,10.275,4.016c-0.756,0.995-1.965,0.234-2.951,0.49
		C217.307,194.431,214.809,200.732,210.033,203.451z"/>
	<path fill-rule="evenodd" clip-rule="evenodd" fill="#F0EEF7" d="M210.033,203.451c3.301-6.85,8.635-10.242,13.896-8.835
		c3.555,1.898,8.656,0.409,10.98,5.007c0.699,1.985,0.52,4.26,1.99,5.989c0.281,3.492-1.739,4.463-4.645,3.83
		c-6.5-1.41-13.252-1.842-19.377-4.783C211.93,204.256,210.981,203.854,210.033,203.451z"/>
	<path fill-rule="evenodd" clip-rule="evenodd" fill="#CCCAD2" d="M225.918,169.583c-0.998,1.503-1.901,3.08-3.018,4.489
		c-1.692,2.139-3.466,4.116-6.352,1.373c-2.947-2.801-5.34-0.771-7.684,1.119c-1.193-2.047,0.396-3.167,1.477-4.46
		c1.686-1.543,3.816-1.51,5.91-1.768c1.602-0.197,3.863,0.009,3.164-2.854c-0.766-1.254-1.944-2.241-2.375-3.706
		c-0.139-2.067-1.439-3.317-3.123-4.188c-2.025-1.049-2.043-2.835-1.947-4.705c0.043-0.837,0.107-1.712,1.098-2.002
		c0.965-0.283,1.547,0.307,2.004,1.05c1.803,2.926,4.619,4.129,7.852,4.631c0.766,1.812-0.863,5.048,2.988,5.024
		C227.979,165.583,227.958,167.583,225.918,169.583z"/>
	<path fill-rule="evenodd" clip-rule="evenodd" fill="#55535C" d="M232.174,161.486c-0.414-1.289-0.828-2.58-1.242-3.869
		c-0.972-1.676-0.164-2.625,1.33-3.291c2.109,0.684,2.578-1.481,3.85-2.255c1.594-0.97,2.598-3.025,4.924-2.631
		c0.732,0.758,0.814,1.675,0.662,2.651c-0.11,0.457-0.287,0.891-0.508,1.303c-1.24,1.733-0.646,2.722,1.328,2.874
		c4.174,0.321,4.934,2.937,4.518,6.436c-0.188,1.256-0.637,2.361-1.752,3.088c-0.674,0.336-1.371,0.524-2.127,0.343
		c-0.459-0.157-0.889-0.38-1.297-0.641C238.763,163.844,234.561,164.85,232.174,161.486z"/>
	<path fill-rule="evenodd" clip-rule="evenodd" fill="#978E99" d="M201.013,204.492c0.013,1.762,2.889,3.027,0.891,5.139
		c-0.829,0.221-1.16-0.145-1.12-0.949c-2.869-4.986-5.959-9.821-9.801-14.134c2.641-3.707,1.258-8.809,4.207-12.556
		c2.402,1.218,2.421,3.464,2.867,5.484c0.111,1.779-1.554,2.712-2.01,4.222C198.051,195.828,201.633,199.344,201.013,204.492z"/>
	<path fill-rule="evenodd" clip-rule="evenodd" fill="#A19FA8" d="M243.104,165.439c0.546-0.021,1.093-0.041,1.64-0.063
		c0.488,0.343,0.572,0.765,0.25,1.267c-1.049,1.898-3.596,2.582-4.033,4.976c-4.57,3.464-9.59,2.523-10.95-2.052
		c0.628-1.681,1.257-3.361,1.886-5.042c1.35,0.838,0.922,2.756,2.271,3.692c2.037,0.083,1.654-2.621,3.297-3.003
		C239.33,165.552,241.213,165.624,243.104,165.439z"/>
	<path fill-rule="evenodd" clip-rule="evenodd" fill="#97959E" d="M210.97,172.617c-0.71,1.312-2.056,2.284-2.103,3.948
		c-1.486,2.825-3.006,5.637-3.084,8.946c-2.48-0.374-1.82-2.229-1.666-3.726c0.178-1.729,0.555-3.438,0.846-5.153
		c1.713-2.122,1.199-5.515,4.006-7.012C212.307,168.834,211.666,170.707,210.97,172.617z"/>
	<path fill-rule="evenodd" clip-rule="evenodd" fill="#8A8891" d="M237.951,165.6c-0.316,0.549-0.823,1.069-0.914,1.652
		c-0.271,1.773-0.748,3.43-2.939,3.115c-2.164-0.312-2.092-2.197-2.127-3.869c-0.014-0.658-0.049-1.315-0.074-1.975
		c0.092-1.013,0.186-2.025,0.277-3.038c3.562,1.062,7.125,2.123,10.688,3.186C241.455,166.201,239.537,165.025,237.951,165.6z"/>
	<path fill-rule="evenodd" clip-rule="evenodd" fill="#C0BEC7" d="M230.011,169.566c2.85,4.954,7.155,2.14,10.95,2.052
		c-1.188,1.913,0.216,5.133-3.031,6.008C235.154,175.074,228.895,175.943,230.011,169.566z"/>
	<path fill-rule="evenodd" clip-rule="evenodd" fill="#808088" d="M232.893,154.525c-1.296,0.623-1.809,1.743-1.961,3.092
		c-2.203-5.14-7.811-6.873-11.018-11.007c0.481-0.609,1.143-0.854,1.885-0.939c4.873,0.465,7.573,5.453,12.426,5.981
		C234.789,153.078,234.314,154.021,232.893,154.525z"/>
	<path fill-rule="evenodd" clip-rule="evenodd" fill="#B1B0B8" d="M210.97,172.617c0-1.444,0.059-2.929-2.001-2.996
		c1.688-0.961,3.375-1.923,5.062-2.884c2.034,1.064,3.994-0.3,6-0.186c3.697,3.372,0.529,4.315-1.98,4.928
		C215.753,172.041,213.176,171.181,210.97,172.617z"/>
	<path fill-rule="evenodd" clip-rule="evenodd" fill="#BFBDC6" d="M225.912,163.587c-1.285,0.639-3.035,1.754-3.955,0.612
		c-1.492-1.853,0.458-3.756,0.967-5.636c1.342-0.914,2.5-3.202,4.324-1.753c1.607,1.275-0.119,2.974-0.613,4.452
		C226.378,162.033,226.152,162.812,225.912,163.587z"/>
	<path fill-rule="evenodd" clip-rule="evenodd" fill="#7D787F" d="M221.957,146.597c-0.68,0.004-1.361,0.009-2.043,0.013
		c-2.006-1.313-4.012-2.628-6.019-3.94c0.136-2.545,1.796-1.217,2.821-1.001c2.021,0.424,3.826,2.019,6.093,1.051
		c-0.001,0.001,0.11-0.087,0.11-0.087C226.041,144.789,223.852,145.657,221.957,146.597z"/>
	<path fill-rule="evenodd" clip-rule="evenodd" fill="#CFC9D2" d="M203.959,143.611c1.852-1.986-0.191-4.31,0.51-7.105
		c1.978,2.488,4.148,3.91,6.5,5.066C208.973,143.422,206.582,143.913,203.959,143.611z"/>
	<path fill-rule="evenodd" clip-rule="evenodd" fill="#94929B" d="M220.031,166.551c-1.967,1.21-3.879,4.137-6.001,0.185
		c1.003-0.986,2.007-1.974,3.011-2.959C218.479,164.228,219.265,165.378,220.031,166.551z"/>
	<path fill-rule="evenodd" clip-rule="evenodd" fill="#DEDDE4" d="M253.953,132.545c0.604,0.716,1.207,1.431,1.811,2.146
		c2.627,1.543,2.691,4.397,3.523,6.86c1.133,3.81,1.132,7.733,1.182,11.649c-0.879,2.66-3.49,3.872-5.105,5.957
		c-1.588,2.051-8.313,0.178-8.479-2.325c-0.236-3.545-4.076-5.35-3.824-8.959c0.057-1.188,0.37-2.331,0.563-3.493
		c0.64-3.014,3.019-5.476,1.805-9.158c-0.66-2.002,1.565-2.579,3.353-1.448c2.059,1.302,2.254,3.512,2.451,6.136
		c1.228-2.2,1.164-4.356,1.844-6.278C253.275,133.193,253.569,132.833,253.953,132.545z"/>
	<path fill-rule="evenodd" clip-rule="evenodd" fill="#B1B0B8" d="M265.91,130.458c-2.416-3.038-2.53-6.077-0.89-9.689
		c1.192-2.625,1.494-5.715,1.851-8.64c0.244-1.997,0.295-3.746,2.968-3.468c2.368,0.245,4.153,1.037,4.128,3.918
		c-0.061,6.66-0.029,13.322-0.035,19.984c-0.395,0.277-0.814,0.306-1.255,0.124C270.807,130.779,267.652,132.757,265.91,130.458z"/>
	<path fill-rule="evenodd" clip-rule="evenodd" fill="#D4D2DA" d="M272.933,132.588c0.333-0.009,0.667-0.016,1-0.024
		c2.814,2.596,4.187,7.065,9.065,6.981c0.457-0.321,0.96-0.428,1.512-0.324c1.327,0.589,3.471,0.695,1.848,3.068
		c-2.65,1.11-5.449,0.482-8.175,0.714c-4.097-0.18-8.129-0.689-11.918-2.396c-1.966-2.578-5.378-3.4-7.332-6.002
		c0.801-3.032-2.887-3.17-3.813-5.621c3.656-0.153,6.447,0.806,8.276,3.595c1.048,1.597,1.692,0.996,2.555,0.034
		C268.272,131.119,270.6,131.249,272.933,132.588z"/>
	<path fill-rule="evenodd" clip-rule="evenodd" fill="#B2B0B8" d="M258.933,134.606c2.695,1.116,6.194,1.064,7.05,4.853
		c1.076,2.291,3.344,2.373,5.371,2.874c2.538,0.627,5.178,1.021,6.834,3.408c-0.238,1.729-1.691,1.76-2.924,2.059
		c-2.09,0.509-4.573,0.373-3.039,4.009c0.588,1.393-1.195,2.45-2.918,2.396c-2.96-0.991-4.071-2.779-5.208-6.013
		c-1.122-3.192-2.833-6.802-5.052-9.796c-0.771-1.161-1.891-2.234-0.999-3.825C258.342,134.592,258.637,134.604,258.933,134.606z"/>
	<path fill-rule="evenodd" clip-rule="evenodd" fill="#D3D1D8" d="M253.953,132.545c-0.01,0.355-0.02,0.711-0.029,1.064
		c-3.24,0.183-5.564-1.435-7.508-3.813c-0.229-0.446-0.389-0.917-0.502-1.405c-0.268-1.736-0.258-3.477-0.049-5.221
		c0.077-0.503,0.236-0.979,0.461-1.438c0.602-0.893,1.334-1.519,2.516-1.209c1.439-0.306,2.867-0.785,4.32-0.877
		c2.079-0.131,4.135,0.413,4.934,2.551c0.869,2.323-1.314,3.464-2.74,4.052C251.556,127.816,253.018,130.151,253.953,132.545z"/>
	<path fill-rule="evenodd" clip-rule="evenodd" fill="#8D8B95" d="M248.842,120.524c-0.578,0.417-1.157,0.834-1.736,1.251
		c-5.172-3.966-8.883-4.238-14.26-1.045c-0.295-0.381-0.59-0.762-0.887-1.143c2.859-5.942,8.966-3.157,13.428-4.75
		c3.102-1.107,2.791,2.712,3.471,4.704C248.956,119.833,248.852,120.195,248.842,120.524z"/>
	<path fill-rule="evenodd" clip-rule="evenodd" fill="#80808A" d="M303.85,132.65c0.561,0.281,1.117,0.578,1.688,0.841
		c0.883,0.406,2.629-0.645,2.609,1.164c-0.02,1.941-1.656,2.073-3.188,2.032c-2.983,0.824-5.972,0.189-8.963,0.052
		c-1.044-0.365-2.257-0.576-2.05-2.14C297.098,133.197,300.41,132.598,303.85,132.65z"/>
	<path fill-rule="evenodd" clip-rule="evenodd" fill="#95939B" d="M293.945,134.599c0.443,0.805,1.22,0.95,2.031,1.026
		c-3.322,3.408-7.588,3.991-12.039,4.022c-0.312-0.039-0.627-0.073-0.939-0.102c-0.672-1.121-0.896-2.4,0.68-2.636
		C287.166,136.391,290.189,133.843,293.945,134.599z"/>
	<path fill-rule="evenodd" clip-rule="evenodd" fill="#88868E" d="M258.048,134.571c0.429,1.139,0.81,2.308,1.909,3.022
		c0.614,1.161,1.01,2.444,0.645,3.686c-0.525,1.785-1.504,1.924-2.564,0.304c-0.758-2.297-1.515-4.594-2.272-6.892
		c0.271-0.555,0.437-1.484,0.83-1.594C257.658,132.801,257.807,133.817,258.048,134.571z"/>
	<path fill-rule="evenodd" clip-rule="evenodd" fill="#818089" d="M272.933,132.588c-2.327,0.008-4.655,0.018-6.982,0.025
		c-0.899-0.701-1.039-1.416-0.038-2.153c1.815-0.032,3.643,0.054,5.444-0.126C273.423,130.127,272.836,131.544,272.933,132.588z"/>
	<path fill-rule="evenodd" clip-rule="evenodd" fill="#C1BFC7" d="M245.717,207.73c2.98-3.119,2.996-5.82-1.207-7.94
		c-4.873-2.457-3.383-4.479-0.458-6.736c5.281-4.079,2.452-10.079,3.841-15.062c0.131-0.469,0.076-0.988,0.107-1.485
		c3.012,0.761,2.633,3.438,3.181,5.592c-0.214,3.866,1.961,7.308,2.063,11.173c0.02,0.736,0.309-1.523,1.369-0.875
		c4.035,4.449,3.246,10.217,4.271,15.493c-0.26,1.236-0.672,2.416-1.424,3.453c-2.26,1.541-1.988-1.83-3.451-1.871
		c-1.23,1.273,0.032,2.83-0.6,4.115c-0.309,0.654-0.789,1.137-1.441,1.449c-2.934-0.551-5.497-0.244-7.207,2.68
		c-0.572,0.977-1.549,1.742-2.809,1.896c-3.902-0.898-5.375-4.377-3.438-8.457c0.398-0.838,1.41-1.383,1.201-2.527
		c-0.002-0.002,0.342-0.072,0.342-0.072C241.83,207.492,244.045,209.471,245.717,207.73z"/>
	<path fill-rule="evenodd" clip-rule="evenodd" fill="#ABA7B4" d="M234.893,229.572c0.729-4.336-3.012-7.391-3.838-12.121
		c3.516,1.85,5.697,4.432,8.854,5.238c1.008,0.971,0.682,2.514,1.5,3.549c1.721,2.18,4.744,2.006,5.932-0.504
		c0.624-1.318,0.613-3.086,2.68-2.713c2.15,0.389,3.463,1.699,3.446,4.045c-0.36,1.377-1.292,2.402-2.472,2.963
		c-7.215,3.428-9.07,9.896-9.85,17.016c-0.107,0.992-0.317,1.955-0.939,2.783c-0.6,0.57-1.311,0.93-2.1,1.154
		c-3.506,0.957-5.078-0.881-5.348-4.018c-0.242-2.814-0.948-5.57-0.97-8.396c0.03-0.502,0.136-0.998,0.294-1.477
		C233.789,234.881,234.703,232.363,234.893,229.572z"/>
	<path fill-rule="evenodd" clip-rule="evenodd" fill="#9D98A4" d="M229.818,264.539c-6.281-3.088-7.441-9.85-10.791-15.041
		c-0.012-1.613-0.023-3.229-0.035-4.842c-0.221-4.643,0.564-9.166,2.412-13.373c1.68-3.82,3.195-8.111,8.459-8.5
		c0.691,1.605,1.385,3.211,2.077,4.816c1.001,1.678,0.644,3.393,0.147,5.111c-1.773,6.297-5.933,11.568-7.672,17.877
		c-0.327,2.797,1.49,4.545,3.105,6.4c1.611,1.852,3.377,3.639,3.121,6.408C230.48,263.857,230.205,264.238,229.818,264.539z"/>
	<path fill-rule="evenodd" clip-rule="evenodd" fill="#C9C2CC" d="M229.863,222.783c-7.154,4.16-8.339,11.518-9.92,18.637
		c-0.246,1.109,0.049,2.352-0.951,3.236c-1.497-5.281-5.699-9.043-7.795-14.059c-1.799-4.307-1.574-5.426,3.209-5.998
		c3.514-0.422,6.727-1.574,9.658-3.555C226.681,219.275,228.707,219.609,229.863,222.783z"/>
	<path fill-rule="evenodd" clip-rule="evenodd" fill="#B4B2C0" d="M252.963,226.629c-2.239-2.627-2.045-2.488-4.039,0.305
		c-1.223,1.713-3.172,3.162-5.566,2.225c-2.883-1.125-4.982-2.889-3.449-6.469c1.669,0.244,2.818,3.43,4.98,0.879
		c1.629-3.949,5.648-1.391,8.038-3.549c-0.727-0.562-1.932-1.543-1.284-3.211c1.734-1.264,3.221,0.463,4.86,0.387
		c5.88-0.582,8.806,3.498,11.806,7.467c0.396,2.695-1.508,2.922-3.359,2.965c-1.789,0.041-3.574-0.252-5.344-0.523
		C257.699,222.746,255.133,227.418,252.963,226.629z"/>
	<path fill-rule="evenodd" clip-rule="evenodd" fill="#E5E4EB" d="M252.168,216.381c-0.576,4.219,3.757,2.436,5.781,4.467
		c-4.605,1.41-9.15,0.73-13.061,2.721c-2.57-0.139-3.027-1.844-2.935-3.959c0.991-1.279,2.087-2.492,2.954-3.852
		c1.927-3.023,4.195-3.348,6.926-1.125C252.433,215.123,252.502,215.713,252.168,216.381z"/>
	<path fill-rule="evenodd" clip-rule="evenodd" fill="#E0DFE5" d="M202.963,218.594c0.639,0.697,1.277,1.396,1.916,2.096
		c-4.699,0.98-8.076-2.166-11.182-4.537c-1.555-1.189-4.16-3.418-3.734-6.512c0.201-1.141,0.863-1.822,2.014-2.012
		c2.592,0.803,4.313,3.023,4.713,5.184C197.402,216.662,199.947,217.686,202.963,218.594z"/>
	<path fill-rule="evenodd" clip-rule="evenodd" fill="#9A94A0" d="M205.928,220.627c-1.338-3.012,2.994-3.654,1.898-7.467
		c2.586,2.641,4.904,3.699,5.156,6.492C210.66,220.184,208.65,222.99,205.928,220.627z"/>
	<path fill-rule="evenodd" clip-rule="evenodd" fill="#C6C3CE" d="M231.001,232.621c0.313-1.674,0.626-3.348,0.939-5.021
		c1.028,0.592,1.403,2.164,2.952,1.975c1.859,3.035,1.133,5.355-1.947,7.023C231.924,235.455,232.891,233.34,231.001,232.621z"/>
	<path fill-rule="evenodd" clip-rule="evenodd" fill="#BFB9C3" d="M191.977,207.629c-0.672,0.67-1.343,1.34-2.014,2.01
		c-0.34-0.014-0.678-0.029-1.016-0.045c1.041-2.455,0.518-5.506,2.879-7.725C193.887,203.893,192.711,205.768,191.977,207.629z"/>
	<path fill-rule="evenodd" clip-rule="evenodd" fill="#D7D4DD" d="M273.971,246.629c-0.523-2.684-1.912-2.082-3.566-1.016
		c-3.549,2.285-6.358,5.904-11.064,6.133c-0.742,0.035-0.846,0.676-1.029,1.391c-1.702,6.621-6.964,10.164-13.299,8.162
		c-3.855-1.219-6.648,1.678-10.082,1.266c-0.324-2.826,1.908-3.473,3.783-4.365c1.925-0.918,3.962-1.582,5.897-2.477
		c3.979-2.643,9.583-2.092,12.681-6.477c4.627-5.764,10.429-8.258,17.798-6.416c1.733,1.174,2.181,2.498,0.466,4.066
		C274.98,247.078,274.453,246.988,273.971,246.629z"/>
	<path fill-rule="evenodd" clip-rule="evenodd" fill="#9B98A5" d="M274.965,246.625c1.108-1.014,1.164-2.043,0.042-3.088
		c-3.298-1.5-6.962-1.197-10.386-2.094c-3.615-0.943-7.503-0.689-10.926-2.486c-2.215-3.389,0.305-4.449,2.698-4.24
		c7.19,0.625,14.649-0.15,21.39,3.379c1.337,0.352,2.562,0.947,3.705,1.723c2.58,1.746,2.99,4.223,2.361,7.049
		c-0.218,0.734-0.598,1.383-1.082,1.969c-1.158,1.707-3.188,1.895-4.834,2.758c-0.657,0.34-1.314,0.68-1.971,1.02
		c-2.098,0.959-2.712-0.291-2.479-1.959C273.678,249.268,274.055,247.814,274.965,246.625z"/>
	<path fill-rule="evenodd" clip-rule="evenodd" fill="#E3E2E9" d="M277.934,251.594c1.361-0.984,2.724-1.967,4.086-2.953
		c2.102-1.561,4.546-1.457,6.967-1.404c2.459,0.053,4.822-0.268,6.975-1.553c4.44-2.172,8.553-6.051,14.07-2.764
		c0.656,0.525,1.121,1.172,1.275,2.014c-0.638,3.066-2.629,4.184-5.637,4.191c-1.904,0.004-3.889-0.541-5.731,0.432
		c-4.642,1.045-9.284,2.09-13.926,3.135C283.807,248.752,280.494,252.938,277.934,251.594z"/>
	<path fill-rule="evenodd" clip-rule="evenodd" fill="#C9C2CD" d="M244.969,256.633c-2.992,2.574-7.914,1.887-10.038,5.932
		c-1.308,0.686-2.614,1.371-3.921,2.059c-0.396-0.027-0.793-0.055-1.189-0.084c0.072-0.309,0.115-0.621,0.131-0.938
		c1.713-2.506,4.409-4.586,1.834-8.312c-1.165-1.688,0.929-2.908,2.375-3.727c1.238-0.701,3.084-0.217,3.805-1.951
		c0.631-0.031,1.264-0.064,1.895-0.096c2.02,1.479-0.453,3.648,0.828,5.225C241.985,255.678,244.195,254.555,244.969,256.633z"/>
	<path fill-rule="evenodd" clip-rule="evenodd" fill="#B6B4BD" d="M274.965,246.625c1.189,1.854-2.705,4.553,0.997,5.99
		c-4.04,2.701-7.81,5.916-12.889,6.801c4.569-3.527,8.462-7.537,10.896-12.787C274.303,246.613,274.634,246.611,274.965,246.625z"/>
	<path fill-rule="evenodd" clip-rule="evenodd" fill="#C8C6CF" d="M246.955,122.624c-0.02,2.021-0.039,4.041-0.058,6.062
		c-0.267,0.601-0.989,0.932-0.996,1.686c0.261-0.393,0.649-0.61,1.072-0.78c2.317,1.34,4.634,2.681,6.95,4.02
		c-0.135,3.389-0.386,6.735-3.613,9.854c-0.26-2.837-0.268-5.051-0.731-7.164c-0.269-1.222-1.372-2.715-2.8-2.146
		c-1.398,0.559-0.703,2.174,0.021,2.946c3.371,3.595-3.141,4.592-1.891,7.559c-1.688,0.674-1.452-2.872-3.441-1.562
		c-0.868-0.287-1.514-0.956-2.346-1.291c0.305-3.187,0.609-6.374,0.939-9.825c-1.311-1.29-3.799,0.53-5.143-1.35
		c0.989-1.236,2.456-1.307,3.838-1.586c4.992,0.661,5.256-3.722,6.977-6.551C246.174,122.236,246.582,122.266,246.955,122.624z"/>
	<path fill-rule="evenodd" clip-rule="evenodd" fill="#B8B6BD" d="M221.957,146.597c0.969-1.165,2.492-2.194,0.963-3.965
		c1.793-0.13,1.911-1.388,2.008-2.796c0.158-2.305,1.676-3.217,3.715-2.701c1.365,0.346,3.096,1.084,3.697,2.177
		c0.82,1.491-1.123,2.021-2.137,2.732c-0.673,0.475-1.416,0.849-2.662,1.583c3.328,1.913,5.582,3.452,8.369,3.938
		c0.818,1.129,0.184,2.16-0.205,3.212c-0.372,0.611-0.841,1.064-1.633,0.967c-2.803,1.328-4.6-0.527-6.618-1.968
		C225.736,148.551,224.189,146.958,221.957,146.597z"/>
	<path fill-rule="evenodd" clip-rule="evenodd" fill="#696672" d="M246.955,122.624c-0.25,0.042-0.5,0.066-0.754,0.072
		c-1.32,0.782-2.547,0.081-3.752-0.309c-3.01-0.974-5.451-0.342-7.258,2.348c-0.451,0.259-0.889,0.223-1.311-0.065
		c-0.344-1.313-0.689-2.626-1.035-3.939c0.176-0.803,0.074-1.924,0.572-2.357c3.17-2.766,11.927-0.524,13.688,3.401
		C247.018,122.051,246.967,122.334,246.955,122.624z"/>
	<path fill-rule="evenodd" clip-rule="evenodd" fill="#A9A8B0" d="M233.881,124.669c0.32-0.009,0.635,0.032,0.94,0.122
		c2.163,0.852,5.104,1.008,4.151,4.645c-0.978,1.663-2.664,0.923-4.052,1.195c-1.956-0.126-3.78-0.675-5.71-1.763
		C230.703,127.248,234.613,128.368,233.881,124.669z"/>
	<path fill-rule="evenodd" clip-rule="evenodd" fill="#808088" d="M235.055,150.678c0.285-1.037,0.57-2.074,0.855-3.111
		c1.742-1.547,2.456-3.666,3.213-5.761c1.901-1.405,1.766,0.055,1.798,1.278c1.536,1.685,0.837,3.204-0.337,4.692
		C238.814,148.876,237.523,150.905,235.055,150.678z"/>
	<path fill-rule="evenodd" clip-rule="evenodd" fill="#E0DFE5" d="M200.783,208.682c0.373,0.316,0.747,0.633,1.12,0.949
		c0.114,2.021,1.751,3.033,2.903,4.361c1.174,1.357,1.16,2.301-0.844,2.617c-4.799-0.184-3.152-5.824-7.082-7.291
		C198.713,209.02,199.748,208.852,200.783,208.682z"/>
	<path fill-rule="evenodd" clip-rule="evenodd" fill="#C2C0C9" d="M243.869,147.485c0.297,4.122,5.939,6.193,3.794,11.461
		c1.502-0.915,1.757-4.384,3.796-1.213c1.659,2.579,2.812,2.634,3.648-0.681c0.53-2.104,3.342-1.866,4.546-3.462
		c2.603-3.149,4.575-0.417,6.729,0.711c5.049,3.771,5.083,4.434,0.384,7.18c-0.428,0.104-0.863,0.194-1.285,0.303
		c-2.281,2.439,0.121,4.807,0.133,7.2c0.01,1.659,1.596,3.303,0.014,4.982c-3.684-0.981-7.027-2.358-7.825-6.707
		c-0.248-2.496,1.038-4.516,2.632-6.851c-1.756,0.652-2.707,1.66-4.059,1.742c-2.621,0.72-6.248,0.057-6.118,4.508
		c-0.14,0.727-0.414,1.271-1.312,0.94c-1.434,0.16-2.723-0.28-3.952-0.958c-0.083-0.421-0.165-0.843-0.249-1.266
		c0.416-0.924,0.832-1.85,1.246-2.774c1.164-3.576,0.854-6.3-3.633-7.092c-1.131-0.199-2.635-0.995-1.299-2.739l-0.158-0.242
		C242.771,151.367,240.779,147.928,243.869,147.485z"/>
	<path fill-rule="evenodd" clip-rule="evenodd" fill="#E3E2E9" d="M255.907,161.543c2.321-0.189,3.715-4.464,5.55-2.727
		c2.043,1.933-1.763,3.684-2.34,5.795c-0.171,0.625-0.139,1.307-0.199,1.963c-1.186,1.706-0.115,2.996,0.598,4.529
		c1.105,2.377,2.205,4.912,0.692,7.598c-3.77,1.366-5.416-2.618-8.374-3.31c-0.924-0.729-2.295-1.158-1.891-2.786
		c-1.407-0.98-2.814-1.961-4.566-3.183c1.167-0.824,3.295,0.119,3.568-1.824c0.35-0.325,0.697-0.651,1.047-0.976
		C251.013,163.822,252.973,162.115,255.907,161.543z"/>
	<path fill-rule="evenodd" clip-rule="evenodd" fill="#64636C" d="M249.943,172.606c0.697,0.593,1.395,1.187,2.092,1.779
		c2.998,2.64,1.678,5.623,0.463,8.417c-0.637,1.466-1.766,1.007-2.523-0.209c-0.273-2.153-0.643-4.275-1.975-6.086
		C248.674,175.22,245.438,171.986,249.943,172.606z"/>
	<path fill-rule="evenodd" clip-rule="evenodd" fill="#79787F" d="M239.878,205.701c-1.438-1.885-1.845-4.164-2.478-6.375
		c3.939,0.2,4.525,0.847,6.602,7.245C242.202,208.293,241.35,205.529,239.878,205.701z"/>
	<path fill-rule="evenodd" clip-rule="evenodd" fill="#5B5A62" d="M239.878,205.701c0.343-0.383-0.007-2.211,1.241-0.691
		c0.794,0.967,1.639,1.561,2.883,1.561c0.572,0.387,1.145,0.773,1.716,1.16c-0.097,0.748,2.368,1.92-0.13,2.156
		c-1.842,0.176-3.842-0.244-5.529-1.332C239.999,207.604,239.938,206.652,239.878,205.701z"/>
	<path fill-rule="evenodd" clip-rule="evenodd" fill="#C9C6CF" d="M206.922,187.613c10.727,2.963,11,3.771,3.859,11.642
		c-0.896,0.988-1.854,1.894-1.848,3.357c-2.012-2.389-4.244-4.63-5.975-7.209c-1.855-2.764-2.744-5.605,2.271-6.138
		C205.846,189.198,206.361,188.185,206.922,187.613z"/>
	<path fill-rule="evenodd" clip-rule="evenodd" fill="#D6CED8" d="M201.013,204.492c-0.354-4.771-5.634-7.629-4.966-12.794
		C200.652,193.794,202.76,199.223,201.013,204.492z"/>
	<path fill-rule="evenodd" clip-rule="evenodd" fill="#A6A4AD" d="M241.059,152.77c0.101,0.85,0.402,1.465,1.352,1.732
		c5.154,1.458,5.594,2.485,3.58,8.099c0.322-3.217-0.209-5.553-4.373-4.979c-1.242,0.17-2.939-0.426-3.193-1.801
		C238.115,154.145,239.613,153.317,241.059,152.77z"/>
	<path fill-rule="evenodd" clip-rule="evenodd" fill="#676571" d="M243.869,147.485c-1.758,1.228-0.064,4.489-2.969,5.043
		c-0.01-0.989-0.02-1.979-0.029-2.969c-0.676-0.553-1.045-1.25-1.002-2.139c0.973-1.298,1.427-2.72,1.052-4.339
		c2.72-2.993,3.169-0.237,3.989,1.578C245.186,145.83,244.331,146.584,243.869,147.485z"/>
	<path fill-rule="evenodd" clip-rule="evenodd" fill="#423F49" d="M239.869,147.42c0.842,0.476,1.068,1.239,1.002,2.14
		c-2.107,1.918-4.233,3.816-6.313,5.764c-1.327,1.243-1.462,0.199-1.665-0.798c0.393-0.928,0.786-1.854,1.18-2.781
		c0.327-0.354,0.654-0.711,0.981-1.066C236.668,149.604,237.67,147.627,239.869,147.42z"/>
	<path fill-rule="evenodd" clip-rule="evenodd" fill="#BBB9C2" d="M237.951,165.6c1.367-1.734,3.262-0.686,4.91-0.93
		c0.092,0.254,0.172,0.51,0.242,0.769C241.435,167.022,239.736,167.707,237.951,165.6z"/>
	<path fill-rule="evenodd" clip-rule="evenodd" fill="#A09EA7" d="M328.914,135.652c-2.072,0.087-2.674,1.36-3.062,3.227
		c-0.452,2.171-0.765,4.719-4.331,3.93c-1.635-0.361-2.078,1.509-2.308,2.739c-0.368,1.982,1.196,2.049,2.566,2.046
		c1.736-0.005,3.353,0.157,4.217,1.976c0.335,0.553,0.257,1.038-0.235,1.459c-2.381,1.271-4.847,1.007-7.334,0.42
		c-2.322-1.132-4.049-2.734-4.307-5.491c0.127-1.393,0.603-2.586,1.926-3.28c3.156-0.653,4.404-3.688,6.725-5.375
		C324.578,135.987,326.117,133.387,328.914,135.652z"/>
	<path fill-rule="evenodd" clip-rule="evenodd" fill="#C0BEC7" d="M283.938,139.648c4.012-1.342,8.025-2.683,12.039-4.023
		c3.005,0.257,6.152-0.688,8.98,1.062c0.065,1.234,2.513,0.089,1.949,1.95c-6.42,2.676-12.886,5.04-20.004,2.893
		C285.914,140.902,284.926,140.275,283.938,139.648z"/>
	<path fill-rule="evenodd" clip-rule="evenodd" fill="#A09EA7" d="M286.902,141.529c4.959-0.207,9.896-0.68,14.609-2.306
		c1.812-0.626,3.578-0.59,5.395-0.588c1.904,2.196,5.082-0.27,6.992,1.91c-1.794,1.826-4.158,1.361-6.348,1.591
		c-7.781,1.088-15.436,3.422-23.436,2.46c-2.117-0.896-5.158,0.202-6.275-2.875C280.86,141.658,283.882,141.594,286.902,141.529z"/>
	<path fill-rule="evenodd" clip-rule="evenodd" fill="#CCCAD2" d="M306.977,140.696c2.307-0.05,4.615-0.1,6.922-0.149
		c1.355,0.062,2.027,0.817,2.146,2.13c-0.41,0.98-0.821,1.96-1.232,2.939c-0.751,2.759-2.258,4.38-5.303,3.18
		C306.43,147.583,305.557,144.618,306.977,140.696z"/>
	<path fill-rule="evenodd" clip-rule="evenodd" fill="#A09EA5" d="M265.979,154.692c-2.179,0.048-3.832-2.926-6.323-1.102
		c-0.542-4.002-1.081-8.005-1.62-12.007c3.785,0.183,1.048-2.771,1.921-3.99c3.061,2.553,1.879,7.969,6.424,9.519
		c-2.045,3.285,0.679,4.699,2.532,6.454c-0.099,0.705-0.491,1.193-1.114,1.511C267.127,155.265,266.514,155.164,265.979,154.692z"/>
	<path fill-rule="evenodd" clip-rule="evenodd" fill="#48464F" d="M277.84,141.721c2.018,0.628,4.037,1.257,6.056,1.885
		c-1.087,3.245-3.444,2.916-5.968,2.126c-3.151-0.949-6.385-1.698-9.411-2.951c-1.142-0.472-4.287-0.301-2.534-3.322
		C269.924,140.271,273.738,141.745,277.84,141.721z"/>
	<path fill-rule="evenodd" clip-rule="evenodd" fill="#C2C0C9" d="M277.928,145.732c1.906-0.942,4.379-0.293,5.968-2.126
		c7.821,0.038,15.475-1.245,23.081-2.911c-0.002,0.99-0.062,1.983,0.007,2.969c0.155,2.238,1.669,3.753,3.462,4.453
		c2.039,0.797,3.102-1.293,4.368-2.501c0.073,2.295,2.351,3.149,3.218,4.927c-3.457,2.537-7.343,1.372-11.059,1.133
		c-2.729-0.176-5.209-0.222-7.553,1.564c-5.143,3.917-11.014,3.794-16.997,2.711c-1.696-0.854-2.654-2.937-5.146-3.29
		c3.1,3.735-0.055,12.947-4.487,14.265c-1.538,0.458-2.593-0.272-3.417-1.416c-1.165-1.615-1.695-3.546-0.265-5.07
		c2.552-2.721,1.116-4.308-1.203-5.862c0.336-0.338,0.673-0.674,1.008-1.01c1.226-0.054,2.562-0.332,2.601-1.733
		c0.126-4.552,0.047-4.54,5.176-5.343C277.131,146.422,277.516,145.994,277.928,145.732z"/>
	<path fill-rule="evenodd" clip-rule="evenodd" fill="#AAA8B3" d="M246.974,129.59c-0.878,1.31-1.047,3.214-3.763,3.83
		c0.385-2.606,1.998-3.697,3.688-4.736C246.914,128.987,246.939,129.289,246.974,129.59z"/>
	<path fill-rule="evenodd" clip-rule="evenodd" fill="#F1EFF6" d="M257.809,208.783c-0.865-5.5-0.961-11.18-3.838-16.204
		c-0.901-0.901-0.918-1.921-0.405-3.013c1.001-1.034,2.14-1.571,3.558-0.875c4.914,2.413,12.049,15.333,11.508,20.96
		c-0.246,2.551-1.513,4.361-4.197,4.889C260.83,214.23,258.445,212.51,257.809,208.783z"/>
	<path fill-rule="evenodd" clip-rule="evenodd" fill="#7F7E85" d="M257.809,208.783c1.344,2.387,3.35,3.992,5.881,4.977
		c4.455,3.088,3.893-1.914,5.504-3.412c3.506,2.826,6.423,6.389,10.67,9.01c1.061-2.848-0.305-4.951-0.553-7.131
		c-0.346-3.016-1.746-6.148,0.93-8.852c3.189,1.998,1.832,5.617,2.955,8.361c1.209,2.957,0.213,6.574,2.648,9.197
		c0.303,0.4,0.441,0.859,0.441,1.359c-2.872,3.557-6.305,2.627-9.801,1.217c-2.619-1.055-5.253-2.297-7.654,0.432
		c-0.23,0.379-0.527,0.697-0.889,0.951c-1.075-0.725-2.684-1.213-3.133-2.219c-1.831-4.094-5.202-4.428-8.932-4.232
		c0.004-1.326,1.016-1.445,1.975-1.766c1.756-0.59-0.538-0.799-0.176-1.309c-0.299-1.254-0.646-2.479-0.804-3.744
		C256.973,210.607,256.652,209.451,257.809,208.783z"/>
	<path fill-rule="evenodd" clip-rule="evenodd" fill="#7F7C87" d="M254.146,189.648c-0.059,0.977-0.117,1.955-0.176,2.932
		c-0.059,0.646-0.119,1.291-0.18,1.936c-1.561-3.895-3.964-7.505-3.816-11.922c2.352-0.787,3.184-4.104,2.061-8.207
		c2.631,1.466,5.26,2.932,7.89,4.399c2.341,0.39,3.504,2.327,5.024,3.803c0.84,1.038,1.475,2.197,1.887,3.456
		c0.551,1.69,1.732,3.612,0.292,5.133c-1.596,1.686-3.318-0.025-4.942-0.579C259.589,189.584,257.299,186.024,254.146,189.648z"/>
	<path fill-rule="evenodd" clip-rule="evenodd" fill="#E6E5EC" d="M256.872,211.623c0.718,0.875,2.852,1.246,1.063,3.006
		c-2.137,1.379-3.732,0.76-4.93-1.334c-1.896-2.852-1.699-5.084,1.938-6.348C256.914,207.932,254.984,210.598,256.872,211.623z"/>
	<path fill-rule="evenodd" clip-rule="evenodd" fill="#49474F" d="M253.006,213.295c1.644,0.443,3.287,0.889,4.93,1.334
		c0.977,0.775,1.953,1.549,3.306,2.621c-1.856,0.686-3.917-0.062-5.364,1.191c-1.884,0.479-2.623-1.102-3.709-2.059
		c-0.111-0.584-0.223-1.168-0.334-1.75C252.225,214.188,252.615,213.74,253.006,213.295z"/>
	<path fill-rule="evenodd" clip-rule="evenodd" fill="#B6B0BA" d="M237.965,249.611c-0.053,1.426-1.214,1.611-2.172,2.24
		c-1.646,1.084-4.689,1.287-1.725,5.027c2.496,3.152-1.245,5.316-4.117,6.723c-0.322-2.615-1.865-4.492-3.699-6.225
		c-1.963-1.852-3.584-3.898-3.224-6.857c3.015-0.287,4.209-2.174,5.384-4.85c1.219-2.779,0.949-6.59,4.514-8.104
		c-0.098,3.334,1.316,6.469,1.113,9.869C233.873,250.191,235.526,250.91,237.965,249.611z"/>
	<path fill-rule="evenodd" clip-rule="evenodd" fill="#D7D6E0" d="M239.918,255.58c-1.381-0.152-2.242-0.738-1.195-2.107
		c0.932-1.217,1.369-2.461,1.139-3.955c-0.363-4.943,1.465-9.4,2.904-13.982c0.941-2.994,3.723-3.52,5.64-5.195
		c1.478-1.293,3.592-1.799,4.557-3.711c0.866-0.705,1.732-1.408,2.598-2.115c1.06-0.865,1.995-2.617,3.579-1.461
		c1.322,0.963-0.496,2.307-0.226,3.537c-1.706,4.5-6.351,5.383-9.683,7.883c-1.679,5.098-5.263,9.379-6.152,14.82
		C242.69,251.664,242.668,254.344,239.918,255.58z"/>
	<path fill-rule="evenodd" clip-rule="evenodd" fill="#E0DBE8" d="M232.926,237.566c-1.34,3.443-2.924,6.816-3.949,10.352
		c-1.033,3.562-2.668,4.691-5.949,2.602c2.658-5.967,5.315-11.932,7.973-17.898c6.594-1.58,1.049,2.773,1.945,3.977l-0.03,0.484
		L232.926,237.566z"/>
	<path fill-rule="evenodd" clip-rule="evenodd" fill="#AEADB3" d="M248.926,233.549c3.329-2.32,6.658-4.641,9.988-6.959
		c1.488-0.826,2.906-0.971,4.627-0.354c1.551,0.555,3.6,1.229,4.4-1.344l0.002-0.4c6.914,0.373,13.501,1.541,18.109,7.488
		c0.186,0.467,0.192,0.943,0.027,1.418c-1.633,1.553-3.073,0.074-4.564-0.328c-1.66-0.445-3.338-0.77-4.609,0.688
		c-1.391,1.592,0.287,2.689,0.885,3.938c0.293,0.615,0.494,1.215,0.176,1.875c-6.943-3.92-14.861-2.283-22.229-3.838
		c-1.828-0.385-2.764,0.902-1.77,2.85c-2.17,1.709-4.053,1.021-5.633-0.836C247.043,236.225,247.121,234.721,248.926,233.549z"/>
	<path fill-rule="evenodd" clip-rule="evenodd" fill="#B6B4BD" d="M248.926,233.549c-1.729,5.094,1.809,4.91,5.043,5.033
		c3.795-0.033,7.441,0.74,11.001,2c-0.107,0.125-0.194,0.328-0.325,0.363c-4.914,1.348-8.35,3.717-6.719,9.627
		c-3.264,4.275-8.767,3.766-12.957,6.061c-1.452-1.461-3.742,1.1-5.051-1.053c1.174-7.027,5.359-13.105,6.352-20.201
		C246.455,234.051,247.716,233.695,248.926,233.549z"/>
	<path fill-rule="evenodd" clip-rule="evenodd" fill="#C1BFC9" d="M257.926,250.572c0.539-2.508-4.092-3.463-2.199-5.967
		c2.175-2.877,5.512-4.166,9.243-4.023c3.567,0.232,7.259,0.043,10.036,2.955C268.104,242.947,261.99,244.271,257.926,250.572z"/>
	<path fill-rule="evenodd" clip-rule="evenodd" fill="#C3C0CD" d="M277.967,239.57c-0.074-0.148-0.174-0.289-0.221-0.447
		c-0.621-2.105-5.225-2.797-2.625-5.844c2.278-2.67,5.465-2.533,8.463-0.58c0.672,0.438,1.493,0.646,2.246,0.961
		c0.213,0.018,0.424,0.035,0.639,0.049c0.809,0.299,1.486,0.824,2.219,1.26c1.921,0.967,3.91,1.816,5.582,3.219
		c1.557,1.58,0.942,3.045-0.345,4.35c-1.179,1.195-2.274,2.42-2.896,4.01c-1.932,1.348-3.584,0.383-5.232-0.621
		c-0.784-2.531-1.668-4.975-4.854-5.324C279.951,240.258,278.959,239.914,277.967,239.57z"/>
	<path fill-rule="evenodd" clip-rule="evenodd" fill="#D2CFD6" d="M285.945,245.6c1.675-0.682,3.332,1.754,5.012,0.029
		c2.29-1.631,4.183-0.715,5.961,0.93c-4.58,3.453-9.917,1.502-14.9,2.082c0.3-0.361,0.598-0.723,0.896-1.084
		C283.729,246.602,284.389,245.406,285.945,245.6z"/>
	<path fill-rule="evenodd" clip-rule="evenodd" fill="#AEACB9" d="M285.945,245.6c-1.01,0.652-2.021,1.305-3.031,1.957
		c-0.027-2.496,0.631-5.188-1.971-6.955C284.771,240.105,287.779,240.43,285.945,245.6z"/>
	<path fill-rule="evenodd" clip-rule="evenodd" fill="#9B99A1" d="M293.9,238.674c-1.965-1.047-3.93-2.094-5.896-3.141
		c0.952-1.096,1.894-2.197,1.824-3.791c0.05-0.447,0.155-0.875,0.298-1.301c0.184-0.422,0.453-0.777,0.806-1.072
		c0.466-0.113,0.897-0.035,1.298,0.232c1.121,1.705,1.15,3.988,2.865,5.363c0.718,0.775,1.555,1.359,2.613,1.588
		c2.227,0.928,4.358,0.408,6.477-0.398c1.817,0.006,3.279,1.018,4.866,1.686c2.808,0.658,5.454,0.221,8.171-0.709
		c3.117-1.068,6.369-1.619,9.475,0.258c0.404,0.652,0.32,1.438-0.359,1.586c-3.123,0.693-4.026,3.406-5.424,5.686
		c-2.294-3.449-4.612-4.338-6.98-0.068c-0.979,0.764-2,0.578-3.035,0.145c-0.281-0.393-0.564-0.787-0.844-1.182
		c-1.123-1.055-2.601-1.85-3.972-1.4C301.152,243.77,297.695,240.729,293.9,238.674z"/>
	<path fill-rule="evenodd" clip-rule="evenodd" fill="#AFAEB6" d="M293.9,238.674c5.232,2.131,11.082,2.215,16.152,4.883
		c-5.111-2.211-9.041,0.756-13.135,3.002c-1.986-0.311-3.974-0.621-5.961-0.93c-1.867-1.809,0.486-1.908,1.102-2.699
		C293.041,241.668,295.34,240.982,293.9,238.674z"/>
	<path fill-rule="evenodd" clip-rule="evenodd" fill="#585561" d="M238.973,129.436c0.315-3.065-3.999-1.996-4.15-4.646
		c-0.113-4.399,2.871-4.339,5.974-4.186c2.048,0.103,3.6,1.405,5.405,2.091C244.971,129.382,243.186,131.048,238.973,129.436z"/>
	<path fill-rule="evenodd" clip-rule="evenodd" fill="#CCCAD2" d="M267.905,154.577c3.667,0.381,6.235,1.173,2.536,5.25
		c-1.877,2.067-1.623,4.646,0.654,6.039c2.482,1.518,2.709-1.602,3.783-2.766c1.342-1.451,2.604-3.056,3.516-4.795
		c0.519-0.989,1.891-3.12-1.221-2.873c-1.146,0.091-2.077-0.147-2.064-1.456c0.014-1.199,0.578-2.33,1.568-2.989
		c0.953-0.633,1.958-0.157,2.688,0.606c0.91,0.954,1.725,1.999,2.58,3.005c0.332,0.4,0.432,0.844,0.267,1.343
		c-1.563,3.288-3.004,6.492-1.899,10.396c0.707,2.497-4.389,11.007-6.688,12.105c-1.499,0.716-2.52,0.158-3.364-1.075
		c-2.089-5.419-3.741-10.951-4.329-16.757c7.962-1.912-0.085-3.948,0.047-5.921C266.621,154.653,267.264,154.615,267.905,154.577z"
		/>
	<path fill-rule="evenodd" clip-rule="evenodd" fill="#CECCD5" d="M263.973,182.575c-1.35-1.264-2.699-2.527-4.048-3.79
		c0.228-2.828-0.495-5.569-1.657-8.005c-0.885-1.855-0.791-2.985,0.65-4.205c-0.011,4.669,4.775,4.585,6.987,7.054
		c1.499,1.381,2.354,3.338,4.069,4.532c1.213,1.7,1.746,3.54,1.168,5.613C268.172,186.85,266.133,184.35,263.973,182.575z"/>
	<path fill-rule="evenodd" clip-rule="evenodd" fill="#E3E2E9" d="M270.881,183.677c-1.155-1.51-0.336-3.804-2.025-5.103
		c-2.209-5.78-5.194-11.392-3.859-17.934c0.312-0.02,0.623-0.03,0.936-0.031c2.916,5.294,3.684,11.221,5.026,16.979
		c0.888,1.624,2.685,2.478,3.503,4.173c0.717,1.485,1.875,2.94-0.09,4.356c-0.738,0.289-1.48,0.292-2.229,0.038
		C271.182,185.606,270.576,184.873,270.881,183.677z"/>
	<path fill-rule="evenodd" clip-rule="evenodd" fill="#B0AFB7" d="M264.996,160.641c0.175,6.217,3.158,11.831,3.86,17.935
		c-1.962-1.068-3.135-2.604-2.952-4.948c-0.965-3.481-2.066-6.937-2.797-10.468C262.936,162.332,261.445,159.227,264.996,160.641z"
		/>
	<path fill-rule="evenodd" clip-rule="evenodd" fill="#BBB9C2" d="M255.907,161.543c-1.972,1.692-3.943,3.387-5.915,5.079
		c-2.557-0.348-2.051-2.228-0.846-2.946C251.141,162.491,253.022,160.156,255.907,161.543z"/>
	<path fill-rule="evenodd" clip-rule="evenodd" fill="#D0CED7" d="M329.934,153.634c5.426,8.226,7.363,17.075,4.613,26.692
		c-0.781,2.735-0.592,5.18,1.267,7.402c4.518,6.158,4.856,10.177,1.171,13.755c-0.449,0.203-0.924,0.35-1.402,0.463
		c-3.797,0.611-7.066,3.607-11.455,2.025c-1.588-0.57-1.278,2.318-2.338,3.271c-0.284,0.381-0.637,0.688-1.043,0.93
		c-7.121-0.912-8.65,5.361-11.969,9.338c-1.799,2.756-4.275,3.27-7.236,2.195c-1.014-0.332-1.859-0.861-2.236-1.928
		c-0.176-0.75-0.104-1.473,0.266-2.154c5.223-0.281,6.006-4.73,7.74-8.279c1.839-6.51,5.645-12.269,7.158-18.9
		c1.02-1.857,2.332-3.418,4.387-4.203c3.275,0.792,3.189,3.028,2.497,5.566c1.781-5.725,4.257-11.327,3.731-17.588
		c-0.354-2.435,1.018-4.477,1.5-6.725c0.701-2.538,0.961-5.112,1.069-7.747C327.719,156.167,327.25,153.919,329.934,153.634z"/>
	<path fill-rule="evenodd" clip-rule="evenodd" fill="#8E8B98" d="M329.934,153.634c-2.064,4.005,0.016,8.7-2.113,12.694
		c-3.779-1.242-1.344-5.002-2.908-7.146c-0.348-2.912-1.038-5.866,0.977-8.504c0.037-0.37,0.071-0.74,0.107-1.11
		c0.316,0.017,0.633,0.028,0.949,0.031C327.941,150.946,328.938,152.291,329.934,153.634z"/>
	<path fill-rule="evenodd" clip-rule="evenodd" fill="#CCCAD2" d="M325.889,150.679c0.043,2.978,0.084,5.956,0.127,8.935
		c-0.109,0.212-0.218,0.424-0.323,0.637c-3.698,3.369-6.995,7.023-8.91,11.768c-0.94,2.329-2.968,3.486-5.29,4.133
		c-2.099,0.585-4.385,1.199-6.188-0.332c-1.985-1.686-0.292-3.67,0.205-5.486c0.604-2.201,1.708-4.355,0.219-7.019
		c-2.535,1.131-3.014,3.741-4.289,5.666c-1.51,2.28-2.314,5.203-5.553,5.835c-5.301-3.518-10.062-7.549-13.074-13.322
		c-0.982-1.886-2.609-3.62-0.871-5.885c0.002-0.337,0.003-0.673,0.004-1.01c5.881,0.627,11.822,1.967,16.797-2.993
		c1.51-1.504,3.873-2.396,5.959-1.791c4.436,1.289,8.887,0.57,13.328,0.729C320.65,150.588,323.27,150.633,325.889,150.679z"/>
	<path fill-rule="evenodd" clip-rule="evenodd" fill="#DBDAE3" d="M254.146,189.648c2.527-5.182,5.236-2.035,7.918-0.172
		c2.128,2.684,6.113,3.643,6.985,7.512c-0.349,4.532,2.405,9.096-0.147,13.596c-0.431,2.215,0.367,4.352,0.748,6.756
		c-2.598-0.691-4.346-2.023-5.96-3.58c2.977-0.576,3.829-2.385,3.722-5.344c-0.299-8.315-6.566-13.118-10.917-19.039
		C256.264,189.063,254.955,189.54,254.146,189.648z"/>
	<path fill-rule="evenodd" clip-rule="evenodd" fill="#D8D7DE" d="M281.941,155.608c1.812,6.284,4.896,11.701,10.777,15.013
		c1.691,0.952,3.07,1.882,3.201,3.966c-0.301,2.953-2.134,5.214-3.464,7.703c0.409,1.098-4.041,2.661,0.432,3.499
		c1.056,0.198,0.712,2.091,0.362,3.187c-1.352,4.226-0.69,8.599-1.1,12.882c-0.395,4.139,1.004,6.613,5.061,7.541
		c1.152,1.611,1.043,3.459,0.914,5.281c-0.117,1.707-0.492,3.4-2.307,4.094c-1.98,0.758-2.301-1.309-3.402-2.119
		c-2.602-1.918-4.947-3.805-4.836-7.473c0.025-0.826-0.719-1.531-1.709-1.42c-1.014,0.115-1.275,0.99-1.375,1.816
		c-0.303,2.543,0.562,4.926,1.08,7.355c0.33,1.549,1.629,3.035,0.35,4.705c-2.12,0.176-2.604-0.92-2.917-2.898
		c-0.811-5.111-1.319-10.301-3.022-15.24c-1.666-1.842-1.674-4.407-2.828-6.472c-0.123-0.462-0.184-0.934-0.194-1.413
		c0.026-0.812,0.14-1.645,0.604-2.301c1.744-2.458,1.34-4.021-1.691-4.892c-1.207-0.347-2.396-1.099-1.971-2.789
		c1.564-3.615-3.137-4.934-2.948-8.044c0.757,0.273,1.888,0.953,2.247,0.106c1.893-4.474,7.932-7.094,5.275-13.778
		C277.492,161.427,278.924,157.625,281.941,155.608z"/>
	<path fill-rule="evenodd" clip-rule="evenodd" fill="#E9E8EE" d="M285.926,221.639c-1.545-3.805-2.912-7.652-2.973-11.832
		c-0.033-2.174,0.312-4.277,3.062-4.08c2.364,0.168,4.105,1.277,3.299,4.258c-0.637,2.348-0.771,4.469,2.858,3.809
		c1.255-0.229,1.601,0.791,1.768,1.885c0.151,0.998-0.345,2.746,1.568,2.32c1.298-0.289,1.397-1.701,1.411-2.9
		c0.022-1.826,0.037-3.652,0.055-5.479c0.158-5.943,3.668-10.723,5.656-16.024c0.537-1.432,2.061-2.101,3.666-0.943
		c1.639,4.581-2.026,8.645-1.266,13.137c1.26,4.785-0.824,7.857-5.057,9.816c-0.012,0.662-0.023,1.326-0.033,1.988
		c-0.949,5.703-5.387,8.994-11.939,8.861c-1.668-0.729-2.609-1.879-2.18-3.809C285.857,222.311,285.893,221.975,285.926,221.639z"/>
	<path fill-rule="evenodd" clip-rule="evenodd" fill="#7C7984" d="M277.846,196.696c1.727,1.948,2.424,4.223,2.141,6.804
		c-0.492,4.67,0.605,9.105,1.801,13.568c0.337,1.258,0.921,3.193-0.763,3.967c-1.243,0.572-2.604-0.469-3.44-1.416
		c-2.765-3.141-7.144-4.73-8.682-9.033c-0.323-4.996-0.646-9.994-0.97-14.989C271.311,195.292,274.543,196.308,277.846,196.696z"/>
	<path fill-rule="evenodd" clip-rule="evenodd" fill="#57555E" d="M285.822,222.646c0.621,1.029,1.242,2.059,1.863,3.086
		c0.408,0.168,0.748,0.424,1.011,0.781c0.525,1.188,1.533,2.037,2.206,3.121c-0.022,0.336-0.045,0.672-0.067,1.008
		c-1.534,1.078-2.803,2.83-5.087,2.018c-4.807-5.182-11.742-5.721-17.805-8.166c0.186-3.549,3.455-5.055,7.635-2.66
		C279.104,223.852,282.278,223.998,285.822,222.646z"/>
	<path fill-rule="evenodd" clip-rule="evenodd" fill="#ADABB7" d="M277.846,196.696c-3.594,2.245-6.746,0.502-9.913-1.099
		c-2.509-1.512-4.854-3.176-5.868-6.121c1.473,0.496,2.947,0.993,4.739,1.598c-0.152-3.392-1.677-5.886-2.831-8.499
		c2.317,0.275,4.271,2.837,6.908,1.103c0.359,0.637,0.717,1.272,1.076,1.91c-0.554,4.855,2.193,7.746,5.969,10.025
		C277.898,195.974,277.872,196.334,277.846,196.696z"/>
	<path fill-rule="evenodd" clip-rule="evenodd" fill="#3D3C43" d="M285.748,232.66c1.656-0.77,2.941-2.482,5.087-2.018
		c0.145,0.311,0.194,0.635,0.147,0.975c-1.189,1.801-1.887,4.869-4.922,1.906l-0.23,0.137
		C285.803,233.326,285.775,232.994,285.748,232.66z"/>
	<path fill-rule="evenodd" clip-rule="evenodd" fill="#63606B" d="M286.061,233.523c2.54,1.686,3.24-1.377,4.922-1.906
		c0.197,2.209,0.289,4.34-2.978,3.916C287.357,234.863,286.709,234.193,286.061,233.523z"/>
	<path fill-rule="evenodd" clip-rule="evenodd" fill="#C5C5CD" d="M320.944,207.6c0.332-2.098,1.429-4.016,0.802-7.664
		c5.182,6.345,9.217,1.416,13.475,0.824c1.27,2.816,2.141,5.71,1.721,8.855c-0.047,2.447,0.109,4.9-0.133,7.342
		c-2.871,6.426-7.785,11.426-11.936,16.955c-1.54,2.053-3.721,3.02-6.389,3.328c-3.5,0.402-6.998,0.891-10.497,1.33
		c-1.405-0.611-2.812-1.223-4.216-1.834c-0.875-0.049-1.195-0.621-1.316-1.387c0.533-9.012,1.299-9.936,10.188-12.348
		c2.259-0.613,4.286-1.738,6.265-2.943C325.513,216.045,325.927,213.463,320.944,207.6z"/>
	<path fill-rule="evenodd" clip-rule="evenodd" fill="#C3C0CD" d="M320.944,207.6c5.05,1.566,6.743,7.41,2.792,10.568
		c-3.99,3.189-8.166,6.311-13.703,6.482c-3.298,0.102-5.047,2.129-5.719,5.24c-0.411,1.904-0.879,3.799-1.32,5.697
		c-1.463,0.795-2.402-0.539-3.596-0.855c-1.736-1.023-2.75,1.254-4.322,0.951c-3.631-0.68-2.713-3.729-3.158-6.066
		c2.232-3.467,6.225-5.328,8.204-9.023c0.462-0.797,1.21-1.332,1.821-1.994c2.55,0.98,4.771,0.971,6.006-1.998
		c4.397-2.906,8.779-5.834,12.996-9.004L320.944,207.6z"/>
	<path fill-rule="evenodd" clip-rule="evenodd" fill="#B7B7BF" d="M307.987,238.57c1.64-2.23,4.041-2.311,6.37-1.932
		c6.326,1.027,9.596-2.932,12.754-7.354c2.836-3.973,5.855-7.814,8.794-11.713c1.852,4.125,1.725,8.018-1.585,11.383
		c-2.666,2.709-3.812,6.707-7.383,8.629l0.02,0.035c-3.896,0.061-7.733-0.254-11.549,1.486
		C313.221,240.102,310.33,240.471,307.987,238.57z"/>
	<path fill-rule="evenodd" clip-rule="evenodd" fill="#C5C5CD" d="M300.945,220.6c-1.663,4.354-5.094,6.938-9.027,9.018
		c-0.338,0.006-0.677,0.012-1.016,0.018c-2.015-0.021-3.363-0.668-2.863-3.051C293.318,226.695,296.521,222.33,300.945,220.6z"/>
	<path fill-rule="evenodd" clip-rule="evenodd" fill="#625F6C" d="M299.881,233.719c1.037,0.625,2.074,1.246,3.113,1.869
		c0.26,0.383,0.52,0.766,0.777,1.148c-1.973,3.598-4.555,1.02-6.916,0.684C296.678,235.217,298.541,234.682,299.881,233.719z"/>
	<path fill-rule="evenodd" clip-rule="evenodd" fill="#2A2734" d="M299.881,233.719c0.078,2.123-2.338,2.205-3.025,3.701
		c-1.467,0.316-1.87-0.457-1.779-1.736C296.455,234.482,297.094,231.475,299.881,233.719z"/>
	<path fill-rule="evenodd" clip-rule="evenodd" fill="#BFBDC9" d="M277.926,195.613c-6.806-1.97-8.412-4.669-5.969-10.025
		c0.65,0.015,1.301,0.03,1.949,0.046c0.284,0.39,0.525,1.076,0.857,1.123C281.482,187.713,280.533,191.359,277.926,195.613z"/>
	<path fill-rule="evenodd" clip-rule="evenodd" fill="#B7B5C0" d="M326.016,159.614c2.013,1.86-0.297,4.883,1.806,6.717
		c-0.464,2.154-2.304,3.917-1.817,6.345c-0.226,5.211-1.762,9.669-6.926,12.04c-1.15,1.537-2.354,3.019-4.158,3.851
		c-0.309,0.296-0.676,0.454-1.104,0.482c-1.12,0.025-2.205-0.039-2.846-1.179c-1.312-2.323-0.98-4.999,0.662-6.475
		c6.355-5.706,8.32-14.129,13.331-20.619c0.302-0.391,0.587-0.795,0.893-1.185L326.016,159.614z"/>
	<path fill-rule="evenodd" clip-rule="evenodd" fill="#E3E2EA" d="M319.078,184.715c3.26-3.467,5.852-7.317,6.926-12.041
		c1.537,5.056-1.254,9.467-2.287,14.099c-0.52,2.326-2.331,4.363-4.006,6.379C320.256,190.166,322.602,187.231,319.078,184.715z"/>
	<path fill-rule="evenodd" clip-rule="evenodd" fill="#C5C5CD" d="M320.945,207.598c-2.971,4.969-7.723,7.361-12.996,9.004
		c1.352-2.033,2.916-3.959,4.01-6.121C314.045,206.357,317.605,207.459,320.945,207.598z"/>
	<path fill-rule="evenodd" clip-rule="evenodd" fill="#D3D3DA" d="M299.975,215.605c0.023-0.48-0.085-1.326,0.092-1.393
		c3.693-1.348,4.029-4.346,3.861-7.617c0.9-0.703,1.91-0.504,2.916-0.355c0.594,0.273,0.988,0.709,1.104,1.369
		c0.356,2.789-1.757,4.783-2.46,7.264C304.602,218,301.812,214.934,299.975,215.605z"/>
	<path fill-rule="evenodd" clip-rule="evenodd" fill="#DFDFE7" d="M307.948,207.609c-0.335-0.338-0.669-0.674-1.005-1.012
		c-1.049-1.123-0.513-2.35-0.244-3.562c2.316-4.841,3.677-10.178,7.347-14.329c0.294-0.032,0.585-0.079,0.874-0.14
		c0.738,0.514,1.209,1.256,0.818,2.086c-2.479,5.258-5.384,10.332-6.637,16.103C309.025,207.105,308.347,207.328,307.948,207.609z"
		/>
	<path fill-rule="evenodd" clip-rule="evenodd" fill="#D3D3DA" d="M300.945,220.6c-3.744,3.197-7.265,6.877-12.906,5.984
		c-0.211-0.244-0.33-0.527-0.354-0.852c5.732-0.229,9.709-3.107,12.256-8.139c0.432,0.805,1.176,0.986,2.002,1.006
		C301.922,219.422,301.748,220.168,300.945,220.6z"/>
	<path fill-rule="evenodd" clip-rule="evenodd" fill="#C6C4CC" d="M307.834,203.508c-0.297,1.029-0.594,2.061-0.891,3.09
		c-1.006,0.635-2.01,0.611-3.016-0.002c-1.009-4.895,1.775-9.248,2.002-13.966c-4.776-3.532-9.609-6.992-13.988-11.031
		c1.065-2.484,1.621-5.259,3.979-7.012c3.242-2.978,4.697-7.106,6.918-10.743c0.77-1.262,1.469-3.101,3.131-2.69
		c1.835,0.452,1.906,2.471,1.965,4.144c0.098,2.749-1.016,5.189-2.135,7.588c-0.976,2.088-0.141,2.866,1.828,2.678
		c3.649-0.35,6.949-0.763,8.66-5.167c1.774-4.57,4.469-8.906,9.57-10.804c-3.25,6.688-5.186,14.134-10.871,19.425
		c-2.881,2.682-4.479,5.609-3.04,9.584c0.396,3.627-2.092,6.325-3.067,9.512C308.34,199.875,306.596,201.4,307.834,203.508z"/>
	<path fill-rule="evenodd" clip-rule="evenodd" fill="#D1D1D6" d="M291.941,181.598c5.766,2.279,10.23,6.205,13.988,11.031
		c-2.029,0.062-2.461,1.395-3.093,3.109c-1.735,4.706-3.88,9.263-5.862,13.878c-4.611,0.736-6.529-0.9-6.125-5.854
		c0.479-5.838-0.561-11.8,1.947-17.549c-2.471-0.17-2.377,2.604-4.641,2.648C288.713,185.987,289.65,183.482,291.941,181.598z"/>
	<path fill-rule="evenodd" clip-rule="evenodd" fill="#ABABB3" d="M307.834,203.508c-2.34-0.193-1.498-1.586-1.005-2.772
		c1.687-4.054,3.409-8.091,5.117-12.136c0.708-0.146,1.457-1.102,2.099,0.105C312.867,194.014,309.449,198.382,307.834,203.508z"/>
</g>
<g id="Layer_5">
</g>
<g id="Layer_4">
</g>
<g id="page">
</g>
<g id="Left_Page">
</g>
</svg>
