<svg id="Layer_3" enable-background="new 0 0 64 64" height="512" viewBox="0 0 64 64" width="512" xmlns="http://www.w3.org/2000/svg"><path d="m13 14v48h38v-48" fill="#c7e2fc"/><path d="m47 8h-30l-4 6h38z" fill="#a1cdfb"/><path d="m17 2h30v6h-30z" fill="#c7e2fc"/><g fill="#ebf7fe"><path d="m38.145 2h-21.145v6h22.96c-.464-2.082-1.07-4.09-1.815-6z"/><path d="m39.96 8h-22.96l-4 6h27.861c-.162-2.058-.47-4.061-.901-6z"/><path d="m13 52.984c15.509-.333 28-16.087 28-35.484 0-1.181-.049-2.348-.139-3.5h-27.861z"/></g><path d="m13 56h38v6h-38z" fill="#a1cdfb"/><circle cx="29" cy="38" fill="#e88229" r="12"/><path d="m23 40c0 6.627 5.373 12 12 12s12-5.373 12-12z" fill="#f7931e"/><path d="m43 40c0 4.418-3.582 8-8 8s-8-3.582-8-8z" fill="#fbb03b"/><path d="m40.834 40c.109-.65.166-1.318.166-2 0-6.627-5.373-12-12-12s-12 5.373-12 12c0 6.405 5.018 11.638 11.337 11.982" fill="none"/><path d="m22 21h4c2.209 0 4 1.791 4 4h-4c-2.209 0-4-1.791-4-4z" fill="#06a24b"/><path d="m51 63h-38c-.552 0-1-.447-1-1v-48h2v47h36v-47h2v48c0 .553-.448 1-1 1z"/><path d="m51 15h-38c-.369 0-.708-.203-.882-.528s-.155-.72.05-1.026l4-6c.186-.279.498-.446.832-.446h30c.334 0 .646.167.832.445l4 6c.205.307.224.701.05 1.026-.174.326-.513.529-.882.529zm-36.131-2h34.263l-2.667-4h-28.93z"/><path d="m47 9h-30c-.552 0-1-.448-1-1v-6c0-.552.448-1 1-1h30c.552 0 1 .448 1 1v6c0 .552-.448 1-1 1zm-29-2h28v-4h-28z"/><path d="m13 55h38v2h-38z"/><path d="m35 53c-7.168 0-13-5.832-13-13 0-.553.448-1 1-1h24c.552 0 1 .447 1 1 0 7.168-5.832 13-13 13zm-10.955-12c.507 5.599 5.226 10 10.955 10s10.448-4.401 10.955-10z"/><path d="m36 39.528h2v8.944h-2z" transform="matrix(.894 -.447 .447 .894 -15.771 21.192)"/><path d="m28.528 43h8.944v2h-8.944z" transform="matrix(.447 -.894 .894 .447 -21.113 53.839)"/><path d="m35 49c-4.962 0-9-4.037-9-9h2c0 3.859 3.14 7 7 7s7-3.141 7-7h2c0 4.963-4.038 9-9 9z"/><path d="m28.283 50.98c-6.887-.375-12.283-6.077-12.283-12.98 0-7.168 5.832-13 13-13s13 5.832 13 13c0 .728-.061 1.456-.18 2.166l-1.973-.332c.102-.601.153-1.218.153-1.834 0-6.065-4.935-11-11-11s-11 4.935-11 11c0 5.842 4.564 10.666 10.392 10.984z"/><path d="m29.343 33h-.687c-1.335 0-2.591-.52-3.535-1.464l-.829-.829 1.414-1.414.829.829c.559.558 1.332.878 2.122.878h.687c.79 0 1.562-.32 2.121-.878l.829-.829 1.414 1.414-.829.829c-.945.944-2.2 1.464-3.536 1.464z"/><path d="m30 32h-2v-5c0-4.411 3.589-8 8-8v2c-3.309 0-6 2.691-6 6z"/><path d="m29 25h-4c-2.757 0-5-2.243-5-5 0-.552.448-1 1-1h4c2.757 0 5 2.243 5 5 0 .552-.448 1-1 1zm-6.829-4c.413 1.164 1.525 2 2.829 2h2.829c-.413-1.164-1.525-2-2.829-2z"/></svg>