<svg id="Layer_2" height="512" viewBox="0 0 128 128" width="512" xmlns="http://www.w3.org/2000/svg" data-name="Layer 2"><path d="m116.242 104.002h-104.484l-10.008-7.125v-7.125h124.5v7.125z" fill="#38454f"/><path d="m17.25 24h93.5a2 2 0 0 1 2 2v63.752a0 0 0 0 1 0 0h-97.5a0 0 0 0 1 0 0v-63.752a2 2 0 0 1 2-2z" fill="#38454f"/><path d="m25.25 33.999h77.5v45.753h-77.5z" fill="#d6eafc"/><path d="m41.5 89.752h45v7.125h-45z" fill="#06daf7"/><g fill="#001524"><path d="m102.75 32.249h-45.625a1.75 1.75 0 0 0 0 3.5h43.875v42.251h-74v-42.251h9.875a1.75 1.75 0 0 0 0-3.5h-11.625a1.749 1.749 0 0 0 -1.75 1.751v45.751a1.749 1.749 0 0 0 1.75 1.75h77.5a1.749 1.749 0 0 0 1.75-1.75v-45.751a1.749 1.749 0 0 0 -1.75-1.751z"/><path d="m45.408 35.749h3.184a1.75 1.75 0 0 0 0-3.5h-3.184a1.75 1.75 0 0 0 0 3.5z"/><path d="m126.25 88h-11.75v-62a3.755 3.755 0 0 0 -3.75-3.75h-93.5a3.755 3.755 0 0 0 -3.75 3.75v62h-11.75a1.75 1.75 0 0 0 -1.75 1.751v7.125a1.748 1.748 0 0 0 .735 1.424l10.008 7.125a1.748 1.748 0 0 0 1.015.324h104.484a1.75 1.75 0 0 0 0-3.5h-103.925l-8.817-6.275v-4.474h36.25v5.375a1.749 1.749 0 0 0 1.75 1.75h45a1.749 1.749 0 0 0 1.75-1.75v-5.375h36.25v5.375a1.75 1.75 0 0 0 3.5 0v-7.124a1.75 1.75 0 0 0 -1.75-1.751zm-41.5 7.125h-41.5v-3.625h41.5zm1.75-7.125h-69.5v-62a.25.25 0 0 1 .25-.25h93.5a.25.25 0 0 1 .25.25v62z"/><path d="m56.187 66.438a1.745 1.745 0 0 0 1.248-.523c5.427-5.515 14.283-14.458 15.365-15.408a1.75 1.75 0 0 0 -.989-3.194c-.983 0-.983 0-16.872 16.147a1.751 1.751 0 0 0 1.247 2.978z"/><path d="m48.592 50.521c-.881 0-.881 0-10.456 9.731a1.75 1.75 0 0 0 2.494 2.455c3.129-3.179 8.253-8.354 8.994-9.023a1.75 1.75 0 0 0 -1.032-3.163z"/><path d="m80.655 62.707c3.129-3.179 8.253-8.354 8.994-9.023a1.75 1.75 0 0 0 -1.032-3.163c-.881 0-.881 0-10.456 9.731a1.75 1.75 0 0 0 2.494 2.455z"/></g></svg>