<?xml version="1.0" encoding="UTF-8" standalone="no"?>
<svg width="134px" height="232px" viewBox="0 0 134 232" version="1.1" xmlns="http://www.w3.org/2000/svg" xmlns:xlink="http://www.w3.org/1999/xlink">
    <!-- Generator: Sketch 41.1 (35376) - http://www.bohemiancoding.com/sketch -->
    <title>home-cracked-screen</title>
    <desc>Created with Sketch.</desc>
    <defs>
        <polygon id="path-1" points="66.53105 232 133.062 232 133.062 0.439 66.53105 0.439 0.0001 0.439 0.0001 232 66.53105 232"></polygon>
        <polygon id="path-3" points="0 232.561 133.062 232.561 133.062 1 0 1"></polygon>
    </defs>
    <g id="Page-1" stroke="none" stroke-width="1" fill="none" fill-rule="evenodd">
        <g id="home-cracked-screen" transform="translate(0.000000, -1.000000)">
            <g id="Group-3" transform="translate(0.000000, 0.561000)">
                <mask id="mask-2" fill="white">
                    <use xlink:href="#path-1"></use>
                </mask>
                <g id="Clip-2"></g>
                <path d="M81.8931,14.252 L51.1681,14.252 C50.1221,14.252 49.2731,13.404 49.2731,12.357 C49.2731,11.311 50.1221,10.462 51.1681,10.462 L81.8931,10.462 C82.9411,10.462 83.7881,11.311 83.7881,12.357 C83.7881,13.404 82.9411,14.252 81.8931,14.252 M72.9001,222.119 L60.1621,222.119 C57.7201,222.119 55.7401,220.141 55.7401,217.697 C55.7401,215.258 57.7201,213.276 60.1621,213.276 L72.9001,213.276 C75.3421,213.276 77.3221,215.258 77.3221,217.697 C77.3221,220.141 75.3421,222.119 72.9001,222.119 M125.2851,0.439 L7.7761,0.439 C3.4811,0.439 0.0001,3.92 0.0001,8.216 L0.0001,224.224 C0.0001,228.517 3.4811,232 7.7761,232 L125.2851,232 C129.5811,232 133.0621,228.517 133.0621,224.224 L133.0621,8.216 C133.0621,3.92 129.5811,0.439 125.2851,0.439" id="Fill-1" fill="#404041" mask="url(#mask-2)"></path>
            </g>
            <mask id="mask-4" fill="white">
                <use xlink:href="#path-3"></use>
            </mask>
            <g id="Clip-5"></g>
            <polygon id="Fill-4" fill="#26A9E0" mask="url(#mask-4)" points="7.47 205.819 125.59 205.819 125.59 23.268 7.47 23.268"></polygon>
            <path d="M82.8013,141.2006 L71.3893,116.9716 L75.4643,112.8966 C76.5683,112.3806 77.7163,111.8606 78.8863,111.3406 L79.4863,114.2086 L88.3703,118.3126 L96.9013,112.3986 L99.9533,112.9276 L115.8373,104.2136 L99.5823,111.0736 L97.1113,109.8376 L85.8193,114.5426 L82.8193,105.8756 L76.9753,108.6206 L76.6303,108.7236 C75.9403,108.4086 75.4643,108.1906 75.4643,108.1906 L84.6383,98.2356 L93.8733,97.2456 L110.1923,81.2796 L92.0323,95.6556 L82.0053,96.2046 L70.6983,103.4256 L65.3173,100.4056 L65.8173,98.4006 C69.5623,92.3506 88.3713,61.9656 88.3713,61.9656 L67.3593,92.2156 L73.2553,68.5626 L74.2593,71.4456 L79.8843,38.4456 L73.2553,64.3466 L71.7593,61.8206 L65.9883,94.1886 L63.7703,97.3826 L63.8763,102.5986 L63.1483,104.2136 C56.1713,93.1726 46.4243,77.7456 46.4243,77.7456 L43.8033,85.5356 L31.9003,54.1536 L43.0823,92.7496 L47.7723,84.4536 L61.5603,105.1686 L49.8933,102.2476 L45.8963,103.0936 L27.0773,92.1106 L46.2613,104.8076 C46.2623,104.8076 48.9413,103.6166 48.9413,103.6166 L61.2283,108.1906 C61.2283,108.1906 57.8243,109.7546 56.0093,110.5436 C57.8243,111.3336 59.5643,112.1186 61.2283,112.8956 C60.3573,114.5026 59.5043,116.0006 58.6693,117.4156 L48.3453,121.2996 L45.6723,119.6286 L24.4233,137.1866 L44.7413,123.2186 L48.3453,124.1836 L57.5543,119.2706 C56.1673,121.5346 54.8393,123.5436 53.5943,125.2956 C55.9363,123.6316 58.7243,121.8236 61.9893,119.9166 L45.6853,141.6446 L59.9263,138.5816 L29.7983,190.6406 L67.1193,133.3986 L55.1373,134.7456 L67.2073,120.3106 C67.5853,121.1506 67.9653,122.0066 68.3463,122.8826 C69.0223,121.3266 69.6943,119.8386 70.3633,118.3936 L82.2603,145.4286 L86.0813,141.0956 L102.6463,186.9826 L88.5633,135.3836 L82.8013,141.2006 Z" id="Fill-6" fill="#FFFFFF" mask="url(#mask-4)"></path>
        </g>
    </g>
</svg>