<svg height="512pt" viewBox="-96 0 512 512" width="512pt" xmlns="http://www.w3.org/2000/svg"><path d="m310 422v60c0 11.050781-8.949219 20-20 20h-260c-11.050781 0-20-8.949219-20-20v-60zm0 0" fill="#495b73"/><path d="m290 10h-260c-11.050781 0-20 8.949219-20 20v60h300v-60c0-11.050781-8.949219-20-20-20zm0 0" fill="#495b73"/><path d="m10 90v332h300v-332c-16.507812 0-283.421875 0-300 0zm0 0" fill="#b8eaff"/><path d="m110 40c-5.519531 0-10 4.480469-10 10s4.480469 10 10 10 10-4.480469 10-10-4.480469-10-10-10zm0 0"/><path d="m30 0c-16.542969 0-30 13.457031-30 30v452c0 16.542969 13.457031 30 30 30h260c16.542969 0 30-13.457031 30-30v-452c0-16.542969-13.457031-30-30-30zm270 412h-113.300781l22.113281-41.277344c1.664062-3.101562 1.574219-6.851562-.238281-9.867187l-20.914063-34.855469 20.914063-34.855469c2.839843-4.734375 1.308593-10.878906-3.429688-13.71875-4.734375-2.84375-10.878906-1.308593-13.71875 3.429688l-15.425781 25.707031-24.339844-40.5625 56.914063-94.855469c1.835937-3.058593 1.902343-6.859375.179687-9.980469l-33.804687-61.164062h125.050781zm-147.898438-312 36.359376 65.796875-18.90625 31.507813-17.902344-26.851563c-3.0625-4.59375-9.273438-5.835937-13.871094-2.773437-4.59375 3.0625-5.835938 9.273437-2.769531 13.867187l23.15625 34.734375-26.742188 44.574219c-1.902343 3.167969-1.902343 7.125 0 10.289062 3.375 5.628907 48.871094 81.453125 57.082031 95.136719l-24.496093 45.71875h-144.011719v-312zm137.898438 392h-260c-5.515625 0-10-4.484375-10-10v-50h280v50c0 5.515625-4.484375 10-10 10zm10-462v50c-13.976562 0-269.039062 0-280 0v-50c0-5.515625 4.484375-10 10-10h260c5.515625 0 10 4.484375 10 10zm0 0"/><path d="m190 452h-60c-5.523438 0-10 4.476562-10 10s4.476562 10 10 10h60c5.523438 0 10-4.476562 10-10s-4.476562-10-10-10zm0 0"/><path d="m210 40h-60c-5.523438 0-10 4.476562-10 10s4.476562 10 10 10h60c5.523438 0 10-4.476562 10-10s-4.476562-10-10-10zm0 0"/></svg>