<svg id="Layer_1" height="512" viewBox="0 0 128 128" width="512" xmlns="http://www.w3.org/2000/svg" data-name="Layer 1"><path d="m49.325 121.5c1.808 0 3.581-.083 5.318-.225 16.239-1.394 28.66-9.1 28.66-18.389v-77.767h-67.957v77.767c0 9.289 12.422 17 28.66 18.389 1.738.142 3.51.225 5.319.225z" fill="#e6e9ed"/><ellipse cx="49.325" cy="25.114" fill="#b7b9bd" rx="33.979" ry="18.614"/><path d="m49.322 32.962a24.5 24.5 0 0 0 5.678-.643c5.081-1.2 8.648-3.983 8.648-7.21s-3.567-6-8.648-7.2a25.347 25.347 0 0 0 -11.346 0c-5.08 1.2-8.648 3.971-8.648 7.2s3.568 6.013 8.648 7.21a24.5 24.5 0 0 0 5.668.643z" fill="#e6e9ed"/><path d="m112.65 56.71-5.04 6.48 5.04 6.48-5.04 6.48 5.04 6.48-5.04 6.49 5.04 6.48-5.04 6.47 5.04 6.48-5.04 6.48 5.04 6.47h-63.33v-77.77h63.33l-5.04 6.49z" fill="#e6e9ed"/><g fill="#1f2d31"><path d="m15.35 76.875a1.75 1.75 0 0 0 1.75-1.75v-5.374a1.75 1.75 0 0 0 -3.5 0v5.374a1.75 1.75 0 0 0 1.75 1.75z"/><path d="m23.1 92.667v-24.167a1.75 1.75 0 0 0 -3.5 0v24.167a1.75 1.75 0 0 0 3.5 0z"/><path d="m43.248 16.207c-6.073 1.431-10 4.925-10 8.9s3.924 7.484 9.991 8.913a27.087 27.087 0 0 0 12.154 0c6.073-1.43 10-4.929 10-8.914s-3.924-7.47-9.991-8.9a27.25 27.25 0 0 0 -12.154.001zm18.645 8.9c0 2.231-3 4.5-7.3 5.509a23.72 23.72 0 0 1 -10.537 0c-4.3-1.012-7.3-3.277-7.3-5.508s3-4.482 7.306-5.5a23.642 23.642 0 0 1 10.537 0c4.293 1.018 7.294 3.278 7.294 5.5z"/><path d="m114.035 94.521-4.206-5.406 4.206-5.406a1.747 1.747 0 0 0 0-2.148l-4.206-5.408 4.206-5.408a1.749 1.749 0 0 0 0-2.149l-4.206-5.405 4.206-5.41a1.75 1.75 0 0 0 0-2.148l-4.208-5.415 4.208-5.415a1.75 1.75 0 0 0 -1.382-2.824h-27.603v-16.785c0-.027 0-.053 0-.08 0-5.73-3.964-11.008-11.162-14.859a1.75 1.75 0 1 0 -1.651 3.086c6 3.209 9.3 7.382 9.312 11.754v.025.062c-.073 9.112-14.8 16.8-32.225 16.8s-32.14-7.682-32.224-16.79v-.072c0-.009 0-.018 0-.028.021-9.132 14.769-16.842 32.225-16.842a55.294 55.294 0 0 1 16.355 2.376 1.75 1.75 0 0 0 1.049-3.34 58.869 58.869 0 0 0 -17.4-2.536c-20.039 0-35.729 8.95-35.729 20.364v.091 36.422a1.75 1.75 0 0 0 3.5 0v-27.573c5.713 6.819 17.851 11.425 32.225 11.425h37.775v1.75a1.75 1.75 0 0 0 3.5 0v-1.75h18.482l-2.849 3.665a1.753 1.753 0 0 0 0 2.148l4.208 5.415-4.207 5.41a1.75 1.75 0 0 0 0 2.15l4.207 5.4-4.207 5.408a1.749 1.749 0 0 0 0 2.149l4.207 5.407-4.207 5.406a1.747 1.747 0 0 0 0 2.148l4.207 5.407-4.211 5.408a1.75 1.75 0 0 0 0 2.15l4.206 5.4-4.206 5.4a1.75 1.75 0 0 0 0 2.151l2.841 3.647h-18.471v-1.748a1.75 1.75 0 0 0 -3.5 0v1.75h-37.78c-1.67 0-3.409-.072-5.16-.213-15.427-1.331-27.06-8.487-27.06-16.647v-20.276a1.75 1.75 0 0 0 -3.5 0v20.276c0 10.154 12.726 18.622 30.269 20.134 1.853.15 3.687.226 5.451.226h63.334a1.749 1.749 0 0 0 1.38-2.825l-4.205-5.4 4.206-5.4a1.75 1.75 0 0 0 0-2.15l-4.206-5.4 4.206-5.4a1.75 1.75 0 0 0 0-2.154zm-32.485-60.467v7.925h-11.95a29.2 29.2 0 0 0 11.95-7.925z"/><path d="m87.1 109.674a1.75 1.75 0 0 0 3.5 0v-7.285a1.75 1.75 0 0 0 -3.5 0z"/><path d="m87.1 78.451a1.75 1.75 0 0 0 3.5 0v-7.285a1.75 1.75 0 0 0 -3.5 0z"/><path d="m87.1 94.063a1.75 1.75 0 0 0 3.5 0v-7.286a1.75 1.75 0 1 0 -3.5 0z"/><path d="m88.846 64.59a1.749 1.749 0 0 0 1.75-1.75v-7.285a1.75 1.75 0 0 0 -3.5 0v7.285a1.75 1.75 0 0 0 1.75 1.75z"/></g></svg>