<svg height="512" viewBox="0 0 64 64" width="512" xmlns="http://www.w3.org/2000/svg"><g id="flat"><path d="m36 13v-4h-8v4s-7 8-7 12v31a5 5 0 0 0 5 5h12a5 5 0 0 0 5-5v-31c0-4-7-12-7-12z" fill="#96c3f0"/><path d="m32 62a5.006 5.006 0 0 1 -5-5h2a3 3 0 0 0 6 0h2a5.006 5.006 0 0 1 -5 5z" fill="#f4f4e6"/><path d="m26 3h12v6h-12z" fill="#e33e5c"/><path d="m29 3h2v3h-2z" fill="#8b3123"/><path d="m33 3h2v3h-2z" fill="#8b3123"/><path d="m21 28h22v18h-22z" fill="#e33e5c"/><g fill="#f4f4e6"><path d="m28 11h5v2h-5z"/><path d="m40 28h-2v-3.723l-2.857-4.762 1.714-1.03 3 5a1 1 0 0 1 .143.515z"/><path d="m38 46h2v5h-2z"/><path d="m38 53h2v2h-2z"/></g><path d="m30 36a2 2 0 0 1 -4 0c0-1.1 2-4 2-4s2 2.9 2 4z" fill="#e6f1fd"/><path d="m38 39a3 3 0 0 1 -6 0c0-1.657 3-5 3-5s3 3.343 3 5z" fill="#e6f1fd"/></g></svg>